<?xml version="1.0" encoding="UTF-8"?>
<svg version="1.1" xmlns="http://www.w3.org/2000/svg" width="1536" height="1024">
<path d="M0 0 C0.89492082 -0.00445784 1.78984164 -0.00891569 2.71188128 -0.01350862 C3.68589652 -0.01332426 4.65991176 -0.01313989 5.66344261 -0.01294994 C7.22629307 -0.01846498 7.22629307 -0.01846498 8.82071626 -0.02409142 C12.3173181 -0.03511793 15.81389021 -0.03897036 19.31050682 -0.04278088 C21.81553301 -0.04904629 24.32055826 -0.05569316 26.8255825 -0.0626936 C34.34604657 -0.08191054 41.8665054 -0.09252002 49.38698775 -0.10142139 C52.93202493 -0.10580906 56.47706062 -0.1111746 60.02209663 -0.11641026 C71.81237096 -0.13341898 83.60264437 -0.14791226 95.39292908 -0.155159 C98.45041594 -0.15706876 101.5079028 -0.15898911 104.56538963 -0.16094494 C105.70521632 -0.16167055 105.70521632 -0.16167055 106.86806981 -0.16241082 C119.17263369 -0.1707079 131.47710025 -0.19604094 143.78162165 -0.22852562 C156.42554375 -0.26163316 169.06941646 -0.27961107 181.71338212 -0.28280324 C188.80800947 -0.28496485 195.90249486 -0.29366226 202.99707985 -0.31926441 C209.67345412 -0.34330237 216.34952931 -0.34677399 223.02595329 -0.33650303 C225.47243282 -0.33600782 227.91892496 -0.34232368 230.36536598 -0.35605907 C233.7137267 -0.37380207 237.06117421 -0.3666591 240.40953636 -0.35352612 C241.37016727 -0.36449536 242.33079818 -0.37546461 243.32053912 -0.38676625 C255.56329135 -0.27139451 266.02655461 4.76575943 274.64400291 13.35297108 C286.42812655 26.94664179 286.14467172 41.12915019 286.06441307 58.18524647 C286.07119705 60.61101912 286.08010455 63.03678661 286.09096336 65.46254444 C286.11131677 71.34105529 286.10844767 77.21927244 286.09390016 83.09777481 C286.08256239 87.87904334 286.0810965 92.66022252 286.08651924 97.44150066 C286.08728541 98.12456421 286.08805157 98.80762775 286.08884095 99.51139019 C286.09043974 100.8994375 286.09206081 102.28748478 286.09370391 103.67553204 C286.10792676 116.65991074 286.09162278 129.64411231 286.06470208 142.62846195 C286.04236135 153.74773912 286.04625164 164.86675524 286.06929588 175.98602772 C286.09610671 188.92862898 286.10655906 201.87107545 286.09123456 214.81370062 C286.08964198 216.19605281 286.08807012 217.57840502 286.08651924 218.96075726 C286.08574786 219.64073322 286.08497649 220.32070918 286.08418173 221.02129047 C286.07988091 225.79230505 286.08711607 230.56322068 286.09891701 235.33421993 C286.1144761 241.76534787 286.10326003 248.19610037 286.07444572 254.62718487 C286.06785841 256.98131846 286.069692 259.33549368 286.08075905 261.68961048 C286.15350069 278.74017261 285.00574364 291.40958243 272.41744041 304.13422108 C264.92782588 310.40711123 254.8957127 315.24099323 244.99475002 315.27123547 C243.66765565 315.27884728 243.66765565 315.27884728 242.31375128 315.28661287 C241.34596934 315.28711063 240.37818739 315.28760838 239.38107872 315.28812122 C238.34961108 315.29250348 237.31814343 315.29688573 236.25541919 315.30140078 C232.78802144 315.31478936 229.32064909 315.32096786 225.85323143 315.32709217 C223.37130175 315.33499323 220.88937322 315.34326218 218.40744591 315.35187244 C210.9503313 315.37583213 203.49322089 315.39102245 196.03608099 315.40393251 C193.92825022 315.40764641 191.8204201 315.4116195 189.71258998 315.41568518 C176.61173678 315.44092798 163.51088249 315.46297224 150.41001034 315.47541332 C147.37643556 315.47834283 144.34286081 315.48130452 141.30928612 315.48431873 C140.55534201 315.48506478 139.8013979 315.48581083 139.024607 315.48657949 C126.82477021 315.4992196 114.62507962 315.53242531 102.4253111 315.57412057 C89.88763315 315.61661773 77.35002987 315.64011747 64.81228012 315.64533389 C57.77789845 315.64873963 50.74374505 315.66039506 43.70943451 315.69343662 C37.08642135 315.72449584 30.46373249 315.72981044 23.84063339 315.71805286 C21.4159516 315.71783255 18.99125112 315.72610271 16.56663322 315.7437067 C-0.01058157 315.85746778 -14.01790821 315.37922379 -26.58255959 303.13422108 C-35.8954291 293.02522157 -39.89963767 281.79380323 -39.843256 268.21043873 C-39.84708154 267.22737729 -39.85090709 266.24431586 -39.85484856 265.23146468 C-39.86514573 261.94598428 -39.8611926 258.6606797 -39.85721779 255.37518787 C-39.8615661 253.01602486 -39.86674965 250.65686325 -39.87270546 248.29770374 C-39.88609461 241.89474254 -39.88667415 235.49184037 -39.88414216 229.0888679 C-39.88285778 225.08711011 -39.88548247 221.08535798 -39.88912964 217.08360195 C-39.88972483 216.41857555 -39.89032002 215.75354915 -39.89093324 215.06837044 C-39.89214504 213.71720148 -39.89335917 212.36603253 -39.89457562 211.01486359 C-39.90544481 198.35158133 -39.90329178 185.68832573 -39.89719077 173.02504198 C-39.89202385 161.4538934 -39.9032722 149.88282906 -39.92228899 138.31169715 C-39.94168708 126.41690876 -39.94991983 114.52216018 -39.94616574 102.62735587 C-39.94425647 95.954807 -39.94698059 89.28231925 -39.96088028 82.60978222 C-39.97346596 76.33312853 -39.9715073 70.05664324 -39.95846939 63.7799921 C-39.9561056 61.4798416 -39.95883119 59.17967923 -39.96709251 56.87954235 C-39.97757825 53.73248536 -39.96944422 50.58599148 -39.95678139 47.43895435 C-39.96415567 46.53513907 -39.97152996 45.63132378 -39.97912771 44.70012015 C-39.87659812 32.5344783 -35.26264426 20.8919402 -27.02005959 11.88422108 C-19.60730197 4.94370478 -10.23851186 0.0237882 0 0 Z " fill="#2F8CEE" transform="translate(644.5825595855713,355.86577892303467)"/>
<path d="M0 0 C5.42372127 -0.29169593 8.38165838 0.52616899 12.63671875 4.1875 C16.83712504 8.8546181 18.88212449 12.32150347 18.90414429 18.63264465 C18.91267426 19.73869553 18.92120422 20.8447464 18.92999268 21.98431396 C18.9290863 23.19323303 18.92817993 24.4021521 18.92724609 25.64770508 C18.93396332 26.92451645 18.94068054 28.20132782 18.94760132 29.51683044 C18.96526007 33.01697115 18.96995669 36.51701404 18.97123289 40.01719499 C18.97265534 42.20562838 18.97692674 44.39403698 18.98222733 46.58246422 C19.00072851 54.22206575 19.008898 61.86159751 19.00732422 69.5012207 C19.00612339 76.61425395 19.02721371 83.72698348 19.05881155 90.83993989 C19.08499667 96.953045 19.09569055 103.06605106 19.0944134 109.1792118 C19.09390434 112.82751276 19.09955603 116.47554389 19.1207695 120.12378883 C19.1438004 124.19577275 19.13461743 128.26708012 19.12255859 132.33911133 C19.13379761 133.5419577 19.14503662 134.74480408 19.15661621 135.98410034 C19.09289204 144.45012018 17.81420538 148.78832826 11.94921875 155.0625 C7.71884946 157.77632181 4.56684985 158.06546705 -0.36328125 158.1875 C-1.14445313 158.23777344 -1.925625 158.28804687 -2.73046875 158.33984375 C-7.73275415 158.55037765 -11.03816485 157.97163181 -15.36328125 155.1875 C-20.28154794 150.04567573 -22.60542421 145.82304587 -22.63070679 138.70475769 C-22.63923676 137.61560562 -22.64776672 136.52645355 -22.65655518 135.40429688 C-22.6556488 134.21924561 -22.65474243 133.03419434 -22.65380859 131.81323242 C-22.66052582 130.55738846 -22.66724304 129.30154449 -22.67416382 128.00764465 C-22.69179938 124.56947713 -22.6965182 121.13140921 -22.69779539 117.69320083 C-22.6992191 115.54244377 -22.70349288 113.39171187 -22.70878983 111.24096107 C-22.72728301 103.72987898 -22.73546146 96.21886778 -22.73388672 88.70776367 C-22.73268596 81.71912734 -22.75377703 74.73080017 -22.78537405 67.74224204 C-22.81157484 61.73186015 -22.82225241 55.72157898 -22.8209759 49.71114045 C-22.82046732 46.1259777 -22.82609231 42.54108972 -22.847332 38.95598412 C-22.87039625 34.95376021 -22.8611704 30.95222344 -22.84912109 26.94995117 C-22.86036011 25.7709726 -22.87159912 24.59199402 -22.88317871 23.37728882 C-22.82730251 16.06646123 -22.12260174 9.9300958 -16.74847984 4.57988262 C-11.60860564 0.23357659 -6.37896658 0.50609983 0 0 Z " fill="#FCFDFE" transform="translate(874.36328125,474.8125)"/>
<path d="M0 0 C2.875 1.5 2.875 1.5 5 4 C5.94157686 10.591038 5.94157686 10.591038 3.37890625 14.42578125 C0.60607631 17.42626554 -2.36901754 19.80085255 -5.625 22.25 C-10.82400711 26.24239551 -15.75980449 30.39467811 -20.58984375 34.83203125 C-23.96679091 37.86964174 -27.49634959 40.70300776 -31.02734375 43.55859375 C-34.33750231 46.27718653 -37.57521804 49.07055048 -40.8125 51.875 C-45.50263598 55.93256991 -50.28063376 59.83280987 -55.1875 63.625 C-60.5117568 67.74217962 -65.50438345 72.10786381 -70.4453125 76.68359375 C-73.55478966 79.50304322 -76.79746853 82.1002636 -80.09765625 84.69140625 C-83.06479437 87.05153899 -85.98161285 89.46461127 -88.89648438 91.88867188 C-127.88732123 124.2697005 -169.61062988 146.69106926 -218.9375 159.5625 C-219.87730713 159.81427002 -220.81711426 160.06604004 -221.78540039 160.32543945 C-228.45242085 161.9751278 -235.13795673 162.80332527 -242 162 C-245.31255951 159.44029493 -245.83413669 158.01591275 -246.5 153.9375 C-245.8686696 150.2284339 -244.90758893 149.344066 -242 147 C-238.8828125 145.9453125 -238.8828125 145.9453125 -235.125 145.125 C-233.68177207 144.7913018 -232.23909119 144.4552316 -230.796875 144.1171875 C-230.02279297 143.93897461 -229.24871094 143.76076172 -228.45117188 143.57714844 C-185.04057351 133.3557685 -144.20236564 114.81400897 -110 86 C-108.68251395 84.91611319 -107.36337259 83.83423666 -106.04296875 82.75390625 C-98.55864555 76.62843769 -91.14009547 70.44016785 -83.81933594 64.12011719 C-79.80671504 60.66512745 -75.70960018 57.33774965 -71.5546875 54.0546875 C-67.94067858 51.14800755 -64.41603007 48.13991503 -60.88427734 45.13427734 C-57.47511594 42.23683996 -54.03638783 39.38247953 -50.5625 36.5625 C-46.29254751 33.08927334 -42.10508232 29.5319418 -37.9375 25.9375 C-33.23286466 21.88125586 -28.46802338 17.93328716 -23.58984375 14.0859375 C-19.75702344 10.99886956 -16.02073039 7.79953818 -12.28881836 4.59155273 C-7.94862549 0.88131315 -5.81139844 -0.56974494 0 0 Z " fill="#FBFDFE" transform="translate(888,411)"/>
<path d="M0 0 C1.27746094 -0.03738281 2.55492187 -0.07476563 3.87109375 -0.11328125 C9.38244665 0.52241977 12.22642914 2.6859893 15.70373535 6.91920471 C18.0331392 11.17168234 18.12883257 14.20204136 18.08007812 18.96069336 C18.0870874 19.80863968 18.09409668 20.656586 18.10131836 21.53022766 C18.11886157 24.32127042 18.10728778 27.11129143 18.09375 29.90234375 C18.09644622 31.84998264 18.10032973 33.79762022 18.10534668 35.74525452 C18.11123696 39.82305747 18.10269479 43.90050941 18.08398438 47.97827148 C18.06121036 53.19484162 18.07431116 58.41058781 18.09827423 63.62712765 C18.11275781 67.64813903 18.10811421 71.66895647 18.09776306 75.68997383 C18.09510207 77.61283021 18.09834339 79.53570442 18.10768127 81.45853996 C18.11788739 84.15113536 18.1022889 86.84241427 18.08007812 89.53491211 C18.08817505 90.3231839 18.09627197 91.11145569 18.10461426 91.9236145 C18.02001078 97.48466896 16.727117 100.71907968 13.5625 105.3125 C8.81968983 109.50382061 4.63668324 110.06150069 -1.4375 110.3125 C-2.20707031 110.37566406 -2.97664062 110.43882812 -3.76953125 110.50390625 C-10.393597 110.85372914 -14.04541946 109.00277077 -19.25 104.875 C-22.69717206 100.33924729 -22.72986488 95.52221364 -22.7121582 90.03735352 C-22.71726913 89.21720764 -22.72238007 88.39706177 -22.72764587 87.55206299 C-22.74151444 84.84843594 -22.74058722 82.14506458 -22.73828125 79.44140625 C-22.74216958 77.55720424 -22.74650453 75.6730031 -22.75126648 73.7888031 C-22.75872273 69.84216468 -22.75844164 65.89561573 -22.75317383 61.94897461 C-22.74737888 56.89720696 -22.7643137 51.8458059 -22.7875185 46.79409885 C-22.80226621 42.90355801 -22.80312614 39.01310527 -22.80000877 35.12254143 C-22.80052143 33.26025606 -22.80574865 31.39796568 -22.81582069 29.53570747 C-22.8281884 26.92924446 -22.82139166 24.32349305 -22.80981445 21.71704102 C-22.81745819 20.95165512 -22.82510193 20.18626923 -22.83297729 19.39768982 C-22.77781056 13.76466286 -21.5422219 9.69153399 -17.7890625 5.44921875 C-17.21929688 4.97097656 -16.64953125 4.49273438 -16.0625 4 C-15.49789062 3.50886719 -14.93328125 3.01773438 -14.3515625 2.51171875 C-10.03311343 -0.19392179 -4.96007406 0.09490575 0 0 Z " fill="#FDFEFE" transform="translate(811.4375,522.6875)"/>
<path d="M0 0 C5.05609692 2.58276812 7.80902379 7.05988388 9.5546875 12.296875 C9.66079052 13.81425274 9.71320893 15.33571886 9.73168945 16.85668945 C9.75094231 18.23876335 9.75094231 18.23876335 9.77058411 19.64875793 C9.77797104 20.64251938 9.78535797 21.63628082 9.79296875 22.66015625 C9.8010405 23.68489548 9.80911224 24.7096347 9.81742859 25.76542664 C9.83126192 27.93499055 9.84198743 30.10457616 9.84985352 32.27416992 C9.86706703 35.58619559 9.91096074 38.89722319 9.95507812 42.20898438 C9.96520525 44.317701 9.97372129 46.4264261 9.98046875 48.53515625 C9.99797684 49.522845 10.01548492 50.51053375 10.03352356 51.52815247 C10.01480736 57.48315634 9.41816733 60.71015538 5.5546875 65.296875 C4.9978125 66.039375 4.4409375 66.781875 3.8671875 67.546875 C-2.11507012 72.07398888 -11.24620937 72.17906464 -18.4453125 71.296875 C-24.12521476 69.3545794 -27.76039022 65.4751649 -30.52978516 60.2512207 C-31.85078343 55.98844734 -31.77041061 51.90426016 -31.78125 47.46484375 C-31.7879068 46.5142659 -31.7945636 45.56368805 -31.80142212 44.58430481 C-31.81152929 42.57632374 -31.81623974 40.56830921 -31.81591797 38.56030273 C-31.82028285 35.50512622 -31.85660029 32.45140476 -31.89453125 29.39648438 C-31.90040165 27.44010907 -31.90436955 25.48372695 -31.90625 23.52734375 C-31.92062103 22.62187302 -31.93499207 21.71640228 -31.94979858 20.78349304 C-31.90010148 13.803978 -30.23114938 8.54298059 -25.6484375 3.203125 C-18.26911083 -2.1099902 -8.62608443 -2.48034377 0 0 Z " fill="#FBFDFE" transform="translate(756.4453125,561.703125)"/>
<path d="M0 0 C5.89864197 6.31997354 6.12031731 11.9716129 6.0625 20.25 C6.0924707 21.7669043 6.0924707 21.7669043 6.12304688 23.31445312 C6.11887474 29.71034121 5.43019362 33.62107919 1.625 38.8125 C-2.76194786 42.60122769 -6.71789384 43.55442034 -12.375 43.8125 C-13.49648438 43.90724609 -13.49648438 43.90724609 -14.640625 44.00390625 C-20.46075672 44.31074993 -23.64612292 43.24325396 -28.375 39.8125 C-34.03821258 33.55315978 -33.64866962 28.80051965 -33.75 20.625 C-33.78738281 19.50029297 -33.82476563 18.37558594 -33.86328125 17.21679688 C-33.93968697 9.9964564 -33.33168003 6.16244955 -28.375 0.8125 C-21.95262226 -4.85430388 -6.88639895 -5.26208864 0 0 Z " fill="#FCFDFE" transform="translate(696.375,589.1875)"/>
<path d="M0 0 C2 2 2 2 2.24839699 3.80010808 C2.24763755 4.53448719 2.24687811 5.26886631 2.24609566 6.02549934 C2.25007775 6.87246317 2.25405985 7.719427 2.25816262 8.59205639 C2.24942409 9.9957321 2.24942409 9.9957321 2.24050903 11.42776489 C2.24221788 12.41769341 2.24392673 13.40762193 2.24568737 14.42754829 C2.24899829 17.76573588 2.23795223 21.10372527 2.22705078 24.44189453 C2.22648701 26.82639562 2.22680255 29.21089706 2.22793579 31.59539795 C2.22845177 37.41182563 2.21975571 43.22818771 2.20706047 49.04460038 C2.19278447 55.81081798 2.18977198 62.57702614 2.18748413 69.3432567 C2.18310386 81.41032955 2.16978578 93.47737541 2.15087891 105.54443359 C2.13252868 117.26839055 2.11836799 128.99234018 2.10986328 140.71630859 C2.10933783 141.43863608 2.10881239 142.16096356 2.10827102 142.90517975 C2.105661 146.52878368 2.10313357 150.15238766 2.10064721 153.77599168 C2.07990438 183.85068004 2.04452146 213.92533687 2 244 C1.34 244.33 0.68 244.66 0 245 C-1.13360109 242.73279782 -1.12528174 241.5118856 -1.12584114 238.99570465 C-1.12844889 238.15345762 -1.13105664 237.31121058 -1.13374341 236.44344091 C-1.13151268 235.5129123 -1.12928196 234.58238368 -1.12698364 233.62365723 C-1.12854363 232.63922339 -1.13010362 231.65478955 -1.13171089 230.64052439 C-1.13571976 227.32088152 -1.13253166 224.00128388 -1.12939453 220.68164062 C-1.13074862 218.31023634 -1.1325286 215.93883226 -1.13470459 213.56742859 C-1.13880239 207.78243657 -1.13818697 201.99745907 -1.13529195 196.2124666 C-1.1330369 191.51239628 -1.13272584 186.81232961 -1.13381577 182.11225891 C-1.133969 181.44424528 -1.13412223 180.77623164 -1.13428011 180.08797517 C-1.13459982 178.7310727 -1.13492403 177.37417023 -1.1352527 176.01726776 C-1.13810673 163.28272165 -1.13482168 150.54818273 -1.12945233 137.81363779 C-1.12498436 126.87819633 -1.12576032 115.94276549 -1.13037109 105.00732422 C-1.13571822 92.31947387 -1.13783204 79.63162983 -1.13475883 66.94377851 C-1.13444027 65.59176604 -1.1341259 64.23975357 -1.13381577 62.88774109 C-1.13366149 62.22246191 -1.13350721 61.55718274 -1.13334826 60.87174359 C-1.13248352 56.17534319 -1.13394507 51.47894678 -1.13629532 46.782547 C-1.1391746 40.46581605 -1.13719727 34.14910524 -1.13140106 27.83237648 C-1.13007377 25.50790757 -1.13046706 23.18343698 -1.13266373 20.85896873 C-1.13537643 17.69807019 -1.13199258 14.53723709 -1.12698364 11.37634277 C-1.13032973 9.98054985 -1.13032973 9.98054985 -1.13374341 8.55655909 C-1.13113566 7.71431205 -1.12852791 6.87206502 -1.12584114 6.00429535 C-1.12567879 5.27403814 -1.12551644 4.54378093 -1.12534916 3.79139471 C-1 2 -1 2 0 0 Z " fill="#3E94EE" transform="translate(606,391)"/>
<path d="M0 0 C0.55171875 0.25652344 1.1034375 0.51304687 1.671875 0.77734375 C-6.16315348 7.75435758 -6.16315348 7.75435758 -10.328125 9.77734375 C-10.988125 9.44734375 -11.648125 9.11734375 -12.328125 8.77734375 C-10.75934826 7.24149935 -9.17256346 5.72403044 -7.578125 4.21484375 C-6.69640625 3.36792969 -5.8146875 2.52101563 -4.90625 1.6484375 C-2.328125 -0.22265625 -2.328125 -0.22265625 0 0 Z " fill="#257FED" transform="translate(810.328125,494.22265625)"/>
<path d="M0 0 C0.53625 0.268125 1.0725 0.53625 1.625 0.8125 C-1.53401225 4.24228473 -3.94980271 6.33743424 -8.375 7.8125 C-9.71550052 8.46463539 -11.05161368 9.12629969 -12.375 9.8125 C-4.80397727 -0.37926136 -4.80397727 -0.37926136 0 0 Z " fill="#207CEC" transform="translate(858.375,454.1875)"/>
<path d="M0 0 C2.0625 0.4375 2.0625 0.4375 4 1 C0.71195019 3.91227269 -1.59885603 5.49701212 -6 6 C-4 4 -2 2 0 0 Z " fill="#247FEC" transform="translate(776,520)"/>
<path d="M0 0 C0.66 0.33 1.32 0.66 2 1 C0.41641358 4.16717283 -0.45263699 5.73268318 -3.6875 7.3125 C-4.450625 7.539375 -5.21375 7.76625 -6 8 C-4.55746343 4.63408134 -2.66735273 2.48952921 0 0 Z " fill="#207CEB" transform="translate(620,366)"/>
<path d="M0 0 C0.66 0.33 1.32 0.66 2 1 C-1.96 4.465 -1.96 4.465 -6 8 C-6.66 7.67 -7.32 7.34 -8 7 C-3.76744186 1.25581395 -3.76744186 1.25581395 0 0 Z " fill="#1B75EA" transform="translate(860,427)"/>
</svg>
