<?xml version="1.0" encoding="UTF-8"?>
<svg version="1.1" xmlns="http://www.w3.org/2000/svg" width="1359" height="1318">
<path d="M0 0 C448.47 0 896.94 0 1359 0 C1359 434.94 1359 869.88 1359 1318 C910.53 1318 462.06 1318 0 1318 C0 883.06 0 448.12 0 0 Z " fill="#2F8BEE" transform="translate(0,0)"/>
<path d="M0 0 C2.08193706 -0.00979044 4.16291777 -0.04099843 6.24462891 -0.07226562 C23.78765245 -0.21255677 38.70596464 5.3744415 51.39501953 17.48413086 C56.54115845 22.6183721 60.91074654 28.19863359 64.95166016 34.24023438 C65.60005859 35.18382812 66.24845703 36.12742187 66.91650391 37.09960938 C76.31443366 51.8025016 77.09946706 68.66909235 77.10987854 85.64761353 C77.11444945 87.22604318 77.11945024 88.80447163 77.12484211 90.38289869 C77.13838866 94.71308322 77.14583261 99.04325991 77.15226877 103.37346005 C77.16029533 108.0530496 77.17399194 112.73262301 77.1869812 117.41220093 C77.21160827 126.6054971 77.23101561 135.79879734 77.24873395 144.99210913 C77.2697912 155.8031747 77.29623374 166.61422518 77.32290541 177.42527811 C77.37066232 196.8500798 77.41384287 216.27488897 77.4543457 235.69970703 C77.49312358 254.29411553 77.53455172 272.88851516 77.5793457 291.48291016 C77.58206681 292.61430622 77.58478792 293.74570227 77.58759148 294.91138306 C77.59855012 299.46729683 77.60951913 304.02321057 77.62050007 308.57912429 C77.72046461 350.07546323 77.80939225 391.5718083 77.8825177 433.06820358 C77.89126864 438.03265181 77.90010218 442.99709988 77.90899658 447.96154785 C77.91156811 449.39867676 77.91156811 449.39867676 77.91419159 450.86483857 C77.9402956 465.3271648 77.97469323 479.78945329 78.01466256 494.25174725 C78.04433923 505.04491382 78.06769343 515.83807565 78.08464545 526.63127124 C78.09390876 532.39571603 78.10623927 538.16010515 78.12768745 543.92451859 C78.14665174 549.02374955 78.15652579 554.1229091 78.15870595 559.22217417 C78.16106971 561.00174471 78.16676573 562.7813152 78.17642283 564.56086111 C78.29518561 587.19523488 75.28543421 608.39101065 62.63525391 627.66210938 C61.50243394 629.39682209 60.41017614 631.15863374 59.35791016 632.94335938 C57.82077672 635.45401065 56.06055693 637.19524356 53.95166016 639.24023438 C53.25041016 640.14773438 52.54916016 641.05523438 51.82666016 641.99023438 C51.20791016 642.73273437 50.58916016 643.47523438 49.95166016 644.24023438 C49.29166016 644.24023438 48.63166016 644.24023438 47.95166016 644.24023438 C47.95166016 644.90023437 47.95166016 645.56023438 47.95166016 646.24023438 C38.79417793 651.13274709 30.25739619 655.33059569 19.95166016 657.24023438 C19.20271484 657.41554688 18.45376953 657.59085938 17.68212891 657.77148438 C-10.54659545 662.61761731 -42.66696475 662.50369626 -67.04833984 646.24023438 C-69.90959724 643.8312556 -71.95049711 641.32004605 -74.04833984 638.24023438 C-75.02287109 636.95632813 -75.02287109 636.95632813 -76.01708984 635.64648438 C-90.16429146 616.85393298 -96.18402917 598.36297219 -96.20655823 575.03436279 C-96.21396599 573.38417427 -96.21396599 573.38417427 -96.2215234 571.70064861 C-96.23685161 568.01950935 -96.24525431 564.33838764 -96.25366211 560.65722656 C-96.26324892 557.99945813 -96.27321468 555.34169354 -96.28363514 552.68392849 C-96.30826415 546.17420576 -96.32766275 539.6644772 -96.34536666 533.15473237 C-96.36658847 525.43114481 -96.39323394 517.70757843 -96.41994262 509.98400825 C-96.47730846 493.31614509 -96.52664271 476.64826299 -96.57382724 459.98036834 C-96.57625132 459.12411779 -96.5786754 458.26786724 -96.58117294 457.38566971 C-96.58359915 456.52818579 -96.58602536 455.67070187 -96.58852509 454.78723359 C-96.61303951 446.15524671 -96.63904335 437.52326448 -96.66517671 428.89128237 C-96.80971677 381.11360151 -96.93520931 333.33588672 -97.04310107 285.55810916 C-97.04826049 283.2753425 -97.05344465 280.9925759 -97.0586338 278.7098093 C-97.13889325 243.34505226 -97.20113167 207.98032247 -97.22699505 172.61547816 C-97.23295233 165.0024734 -97.24377848 157.38948522 -97.25662231 149.77648926 C-97.27187616 140.63458523 -97.27988691 131.49271079 -97.27809 122.35079354 C-97.27730064 117.79185605 -97.27936632 113.23297727 -97.29021072 108.67405128 C-97.29986604 104.55870701 -97.30003489 100.44347186 -97.29281318 96.32812357 C-97.29180598 94.86182755 -97.29407279 93.39552419 -97.3002187 91.9292407 C-97.35080105 79.05153176 -96.70115937 65.85680927 -92.79833984 53.49023438 C-92.58218018 52.78761475 -92.36602051 52.08499512 -92.14331055 51.36108398 C-88.68878106 40.56398595 -83.57385965 31.713625 -76.04833984 23.24023438 C-75.45537109 22.5415625 -74.86240234 21.84289062 -74.25146484 21.12304688 C-55.83150498 0.89257814 -25.40320252 0.07198074 0 0 Z " fill="#FBFCFE" transform="translate(1126.04833984375,497.759765625)"/>
<path d="M0 0 C0.6909375 0.52078125 1.381875 1.0415625 2.09375 1.578125 C3.0425 2.238125 3.99125 2.898125 4.96875 3.578125 C12.09403656 10.28427705 13.93332029 15.76545468 14.46484375 25.48046875 C14.90253726 43.50532291 14.90253726 43.50532291 9.09375 50.578125 C7.3088852 52.43306533 5.47554783 54.06016568 3.46484375 55.66796875 C0.5551057 58.01205756 -2.16968016 60.53742154 -4.90625 63.078125 C-8.86451481 66.72533499 -12.86113854 70.31937876 -16.92578125 73.84765625 C-21.88205058 78.17828211 -26.75870763 82.60176355 -31.6015625 87.05859375 C-36.9800857 92.00039925 -42.47228543 96.71094904 -48.15625 101.296875 C-50.98724578 103.64531468 -53.70008598 106.08722402 -56.40625 108.578125 C-60.8761012 112.69191409 -65.49669893 116.54899797 -70.22265625 120.36328125 C-72.85333557 122.53445327 -75.38567424 124.78053857 -77.90625 127.078125 C-82.20616791 130.99703752 -86.66544547 134.66983369 -91.1875 138.328125 C-93.82772729 140.51314069 -96.3735472 142.76983891 -98.90625 145.078125 C-102.22614486 148.10094921 -105.60389112 151.00324661 -109.09375 153.828125 C-115.53336993 159.04331015 -121.76080403 164.49144252 -128.00976562 169.93164062 C-130.98480189 172.51449909 -133.9756906 175.07869414 -136.96875 177.640625 C-137.54214111 178.13151611 -138.11553223 178.62240723 -138.70629883 179.12817383 C-139.86155518 180.11697703 -141.01690976 181.10566549 -142.17236328 182.09423828 C-144.50077722 184.08693047 -146.82759289 186.08148362 -149.15429688 188.07617188 C-150.9034623 189.5757351 -152.65290271 191.07497709 -154.40234375 192.57421875 C-156.74966526 194.58611502 -159.09591417 196.59925258 -161.44140625 198.61328125 C-171.91279199 207.60260769 -182.39828726 216.56513649 -193.10546875 225.2734375 C-195.62277828 227.34486375 -198.10995175 229.44544388 -200.58911133 231.56201172 C-206.11193278 236.27647413 -211.7232511 240.84289007 -217.453125 245.30322266 C-222.09094659 248.91882527 -226.66280446 252.61001779 -231.21875 256.328125 C-236.05537903 260.27351003 -240.91475909 264.17732693 -245.85546875 267.9921875 C-256.62621606 276.32156542 -267.02087285 285.1055523 -277.09375 294.265625 C-280.4070808 297.27626979 -283.79566929 300.14377678 -287.28125 302.953125 C-291.29452347 306.19765877 -295.13031347 309.56568251 -298.90625 313.078125 C-304.37906283 318.16247646 -310.07976672 322.9017168 -315.90625 327.578125 C-317.6162352 328.9719342 -319.32453288 330.36781595 -321.03125 331.765625 C-322.38476562 332.87357422 -322.38476562 332.87357422 -323.765625 334.00390625 C-324.81259706 334.86186074 -325.85946263 335.71994518 -326.90625 336.578125 C-327.54369141 337.10067871 -328.18113281 337.62323242 -328.83789062 338.16162109 C-336.23631576 344.2304792 -343.62215068 350.3097247 -350.90625 356.515625 C-355.17476247 360.15174103 -359.51024917 363.67297271 -363.96875 367.07421875 C-365.81062182 368.50389748 -367.57889467 369.99258879 -369.34375 371.515625 C-371.90625 373.578125 -371.90625 373.578125 -373.90625 373.578125 C-374.23625 374.568125 -374.56625 375.558125 -374.90625 376.578125 C-376.69921875 378.234375 -376.69921875 378.234375 -379.09375 380.078125 C-379.99867188 380.78195312 -380.90359375 381.48578125 -381.8359375 382.2109375 C-382.84914063 382.99210937 -383.86234375 383.77328125 -384.90625 384.578125 C-386.01421677 385.44900145 -387.12094973 386.32144948 -388.2265625 387.1953125 C-394.45244671 392.11479031 -400.71640749 396.98200905 -407.01318359 401.81030273 C-410.97681839 404.85340162 -414.91614492 407.92618512 -418.84375 411.015625 C-419.43019287 411.47686768 -420.01663574 411.93811035 -420.62084961 412.41333008 C-423.47158748 414.65719476 -426.31945134 416.90462425 -429.1640625 419.15625 C-438.86747462 426.8250524 -448.69978322 434.3218099 -458.55517578 441.79394531 C-460.53840117 443.29897243 -462.51812411 444.80839293 -464.49609375 446.3203125 C-470.26109048 450.69898281 -476.14395237 454.81318553 -482.19921875 458.78125 C-484.52523942 460.32521755 -486.78459287 461.9222038 -489.03125 463.578125 C-491.90625 465.578125 -491.90625 465.578125 -493.90625 465.578125 C-493.90625 466.238125 -493.90625 466.898125 -493.90625 467.578125 C-495.61262126 468.67032362 -497.37529914 469.67480165 -499.15625 470.640625 C-503.67211356 473.19007379 -507.80535497 475.90481337 -511.90625 479.078125 C-516.79365461 482.84804157 -521.81212025 485.99564534 -527.21484375 488.97265625 C-529.92764231 490.49860109 -529.92764231 490.49860109 -532.19140625 492.46484375 C-535.17920619 494.79059881 -538.26430065 496.5064441 -541.5859375 498.30566406 C-545.10158885 500.23364963 -548.49712962 502.34425888 -551.90625 504.453125 C-553.49045621 505.42517902 -555.0751176 506.39649146 -556.66015625 507.3671875 C-557.50465332 507.88442383 -558.34915039 508.40166016 -559.21923828 508.93457031 C-576.16789494 519.3014935 -593.27579064 529.28866204 -610.70703125 538.82421875 C-613.63401727 540.42887897 -616.55241843 542.04796088 -619.46875 543.671875 C-647.59314255 559.23341886 -676.57542121 573.4420648 -705.90625 586.578125 C-707.48200737 587.2924472 -709.05754137 588.00726242 -710.6328125 588.72265625 C-722.94001987 594.28288154 -735.41255923 599.45357309 -747.90625 604.578125 C-748.81262207 604.95001953 -749.71899414 605.32191406 -750.65283203 605.70507812 C-760.69130967 609.80910423 -770.77712896 613.66253095 -781.0234375 617.21484375 C-786.70592189 619.19214766 -792.29852345 621.39991716 -797.90625 623.578125 C-806.5332141 626.91152191 -815.14343505 630.06466789 -824.01171875 632.7109375 C-827.25738748 633.68332408 -830.46795953 634.73816268 -833.67675781 635.82495117 C-835.72915965 636.5182998 -837.78391986 637.20389829 -839.83984375 637.88671875 C-843.65414044 639.15645643 -847.46241681 640.44326907 -851.26953125 641.734375 C-853.58590929 642.51570865 -855.9023161 643.29695697 -858.21875 644.078125 C-859.36537109 644.46871094 -860.51199219 644.85929688 -861.69335938 645.26171875 C-868.08406048 647.41003593 -874.45434982 649.28877287 -881.00952148 650.86279297 C-885.81239534 652.04883767 -890.54057184 653.47966143 -895.28125 654.890625 C-928.20482963 664.57494273 -928.20482963 664.57494273 -943.90625 667.578125 C-944.74188477 667.74054687 -945.57751953 667.90296875 -946.43847656 668.0703125 C-949.30106571 668.62377982 -952.16567383 669.16534802 -955.03125 669.703125 C-955.92585938 669.87408691 -956.82046875 670.04504883 -957.7421875 670.22119141 C-969.75498882 672.42309925 -981.68556998 672.76466752 -993.86279297 672.76342773 C-996.29802288 672.76564024 -998.73281695 672.78394236 -1001.16796875 672.80273438 C-1002.73437348 672.8056648 -1004.30078032 672.80765194 -1005.8671875 672.80859375 C-1006.58603119 672.81577927 -1007.30487488 672.82296478 -1008.04550171 672.83036804 C-1015.25464787 672.79782531 -1019.82358294 671.2422902 -1024.96875 666.203125 C-1031.54452149 659.35996521 -1035.36609888 651.12079479 -1035.90625 641.578125 C-1035.968125 640.90652344 -1036.03 640.23492188 -1036.09375 639.54296875 C-1036.56543245 631.18534533 -1033.94862125 623.58144902 -1028.53125 617.203125 C-1027.36783268 615.95148646 -1026.15337444 614.74637991 -1024.90625 613.578125 C-1024.01421875 612.74152344 -1023.1221875 611.90492188 -1022.203125 611.04296875 C-1018.6524132 608.1317164 -1014.87910031 606.84739474 -1010.53125 605.515625 C-1009.74250488 605.26449951 -1008.95375977 605.01337402 -1008.14111328 604.75463867 C-998.12843977 601.62329686 -988.0517531 599.10014747 -977.71875 597.265625 C-958.29524435 593.79296714 -939.17355383 588.44250145 -920.09375 583.453125 C-919.30313171 583.24742889 -918.51251343 583.04173279 -917.69793701 582.82980347 C-908.24972814 580.36673738 -898.90068063 577.70544633 -889.59692383 574.74316406 C-884.30967902 573.07413369 -878.98545947 571.54405083 -873.65625 570.015625 C-866.62253367 567.9806754 -859.60916147 565.93337292 -852.68847656 563.53564453 C-849.93993475 562.5897178 -847.1825879 561.67535109 -844.421875 560.765625 C-837.71331444 558.5326914 -831.05889688 556.15916991 -824.40625 553.765625 C-810.34639697 548.71338467 -810.34639697 548.71338467 -804.484375 546.72265625 C-792.28595805 542.5757277 -780.44649739 537.74171898 -768.59033203 532.70361328 C-766.1694342 531.6884833 -763.73879904 530.70925962 -761.296875 529.74609375 C-754.35647919 526.9890728 -747.501266 524.02913734 -740.63769531 521.08740234 C-738.28041436 520.07776709 -735.92149967 519.07201803 -733.5625 518.06640625 C-732.03896123 517.41429906 -730.51552035 516.76196309 -728.9921875 516.109375 C-728.29926605 515.81446167 -727.6063446 515.51954834 -726.89242554 515.21569824 C-722.76646697 513.44199958 -718.74178631 511.52690816 -714.73614502 509.496521 C-712.36748385 508.30772661 -709.9627547 507.21326 -707.54296875 506.1328125 C-695.58460371 500.74969025 -683.87174255 495.10173604 -672.33056641 488.87695312 C-667.87538445 486.49008827 -663.38775479 484.16506231 -658.90625 481.828125 C-651.86768364 478.14552085 -644.86109446 474.41683785 -637.90625 470.578125 C-636.2997277 469.70136736 -634.69292817 468.82511763 -633.0859375 467.94921875 C-631.29681682 466.97146062 -629.50775492 465.99359493 -627.71875 465.015625 C-626.8743335 464.55607422 -626.02991699 464.09652344 -625.15991211 463.62304688 C-620.61977218 461.13500557 -616.18297544 458.54762169 -611.81225586 455.77319336 C-609.33531399 454.22014732 -606.8104983 452.7589655 -604.27929688 451.29663086 C-585.06421532 440.17940076 -566.66724104 427.82150974 -548.375 415.26464844 C-546.40516737 413.91895977 -544.42789435 412.58834176 -542.4375 411.2734375 C-540.19817608 409.77364339 -538.04439646 408.21737062 -535.90625 406.578125 C-526.63213832 399.578125 -526.63213832 399.578125 -523.90625 399.578125 C-523.90625 398.918125 -523.90625 398.258125 -523.90625 397.578125 C-522.28125 396.2734375 -522.28125 396.2734375 -519.90625 394.703125 C-514.2667609 390.88152279 -508.84989493 386.80500868 -503.44140625 382.66650391 C-502.78269531 382.16683105 -502.12398437 381.6671582 -501.4453125 381.15234375 C-500.56673584 380.48078247 -500.56673584 380.48078247 -499.67041016 379.7956543 C-497.8207317 378.51910483 -495.93667613 377.53593101 -493.90625 376.578125 C-493.90625 375.918125 -493.90625 375.258125 -493.90625 374.578125 C-492.5078125 373.3515625 -492.5078125 373.3515625 -490.53125 371.953125 C-486.21407219 368.83858958 -482.11015279 365.50828613 -478.0078125 362.1171875 C-475.90625 360.578125 -475.90625 360.578125 -473.90625 360.578125 C-473.90625 359.918125 -473.90625 359.258125 -473.90625 358.578125 C-472.03515625 356.87890625 -472.03515625 356.87890625 -469.46875 354.890625 C-468.55996094 354.18035156 -467.65117188 353.47007812 -466.71484375 352.73828125 C-464.93658991 351.37058393 -463.15798773 350.0033393 -461.37890625 348.63671875 C-460.60417969 348.03988281 -459.82945312 347.44304687 -459.03125 346.828125 C-458.33257813 346.29703125 -457.63390625 345.7659375 -456.9140625 345.21875 C-454.84464672 343.58367057 -454.84464672 343.58367057 -452.89453125 341.56640625 C-451.00989465 339.68176965 -449.09781885 338.11344827 -446.96875 336.515625 C-443.0345733 333.50028562 -439.23842491 330.3565032 -435.46875 327.140625 C-430.74727249 323.11422912 -425.96033158 319.19173463 -421.09765625 315.3359375 C-418.61025322 313.34069443 -416.19748417 311.27275953 -413.7890625 309.18359375 C-411.50413238 307.23524047 -409.17491131 305.34591924 -406.84375 303.453125 C-401.90960096 299.43020731 -397.06497417 295.31385614 -392.23999023 291.16162109 C-387.78946508 287.33166297 -383.31725092 283.52876068 -378.82543945 279.74731445 C-375.87921238 277.26288694 -372.95489525 274.75624786 -370.05078125 272.22265625 C-369.09171875 271.38927734 -369.09171875 271.38927734 -368.11328125 270.5390625 C-366.87142628 269.45852065 -365.63300694 268.37401471 -364.3984375 267.28515625 C-360.12943609 263.578125 -360.12943609 263.578125 -357.90625 263.578125 C-357.90625 262.918125 -357.90625 262.258125 -357.90625 261.578125 C-356.35736498 260.16105998 -354.73863466 258.82003004 -353.09375 257.515625 C-352.09859375 256.7215625 -351.1034375 255.9275 -350.078125 255.109375 C-349.55669922 254.69558594 -349.03527344 254.28179687 -348.49804688 253.85546875 C-346.91397376 252.58432296 -345.35276007 251.28981976 -343.796875 249.984375 C-342.82234375 249.1696875 -341.8478125 248.355 -340.84375 247.515625 C-339.94527344 246.76152344 -339.04679688 246.00742187 -338.12109375 245.23046875 C-335.90625 243.578125 -335.90625 243.578125 -333.90625 243.578125 C-333.90625 242.918125 -333.90625 242.258125 -333.90625 241.578125 C-332.28125 240.08984375 -332.28125 240.08984375 -329.90625 238.265625 C-329.00003906 237.55921875 -328.09382812 236.8528125 -327.16015625 236.125 C-326.64727051 235.72603516 -326.13438477 235.32707031 -325.60595703 234.91601562 C-322.31635252 232.32666878 -319.08619704 229.66357924 -315.84375 227.015625 C-306.76472083 219.63355123 -306.76472083 219.63355123 -302.59375 216.328125 C-301.60955078 215.54695313 -301.60955078 215.54695313 -300.60546875 214.75 C-298.90625 213.578125 -298.90625 213.578125 -295.90625 212.578125 C-295.90625 211.918125 -295.90625 211.258125 -295.90625 210.578125 C-293.89453125 209.02734375 -293.89453125 209.02734375 -291.21875 207.265625 C-287.35485632 204.63904559 -284.12970284 201.97581853 -280.90625 198.578125 C-279.6909223 197.45874423 -278.46095635 196.35510106 -277.21875 195.265625 C-276.63738281 194.75386719 -276.05601562 194.24210938 -275.45703125 193.71484375 C-273.90625 192.578125 -273.90625 192.578125 -271.90625 192.578125 C-271.90625 191.918125 -271.90625 191.258125 -271.90625 190.578125 C-270.04296875 188.95703125 -270.04296875 188.95703125 -267.59375 187.140625 C-264.82821502 185.0787205 -262.32858885 183.02550095 -259.90625 180.578125 C-258.2937541 179.22969637 -256.66693829 177.89832445 -255.03125 176.578125 C-250.10413155 172.57484126 -245.24278851 168.50206094 -240.41064453 164.38476562 C-238.91325929 163.1110737 -237.40987706 161.84444222 -235.90625 160.578125 C-235.01679687 159.81113281 -234.12734375 159.04414063 -233.2109375 158.25390625 C-230.90625 156.578125 -230.90625 156.578125 -227.90625 156.578125 C-227.65488281 155.97871094 -227.40351562 155.37929688 -227.14453125 154.76171875 C-225.73974191 152.28450347 -224.42319652 151.24852212 -222.09375 149.640625 C-219.68490283 147.91263267 -217.63690335 146.30877835 -215.53125 144.203125 C-213.25721394 141.92908894 -210.98802329 140.00236898 -208.46875 138.015625 C-204.20993744 134.65674009 -200.07335357 131.18411549 -195.96875 127.640625 C-191.8237204 124.06444464 -187.65772724 120.52814556 -183.40625 117.078125 C-178.56234103 113.14601066 -173.82820047 109.09826274 -169.10424805 105.02392578 C-165.52140881 101.94084618 -161.89681336 98.92285947 -158.21875 95.953125 C-153.53461556 92.15369531 -149.09692472 88.13412292 -144.66015625 84.05078125 C-141.08331369 80.83923325 -137.36142692 77.83238717 -133.61328125 74.82421875 C-129.98914117 71.81717612 -126.58623037 68.59429338 -123.1953125 65.328125 C-120.70226674 63.42217876 -118.99272823 62.92712607 -115.90625 62.578125 C-115.57625 61.588125 -115.24625 60.598125 -114.90625 59.578125 C-112.97997399 57.9463866 -111.06267663 56.44203243 -109.03125 54.953125 C-107.837571 54.05597754 -106.6448781 53.15751671 -105.453125 52.2578125 C-104.5549707 51.58250488 -104.5549707 51.58250488 -103.63867188 50.89355469 C-96.08459533 45.1577367 -89.01605544 38.9484868 -82.12109375 32.44921875 C-79.90625 30.578125 -79.90625 30.578125 -77.90625 30.578125 C-77.90625 29.918125 -77.90625 29.258125 -77.90625 28.578125 C-76.48046875 27.39453125 -76.48046875 27.39453125 -74.59375 26.140625 C-72.07804197 24.45821229 -70.03184709 22.72461248 -67.90625 20.578125 C-64.28859821 17.51794742 -60.59501212 14.55197225 -56.90625 11.578125 C-56.12378906 10.94003906 -55.34132813 10.30195313 -54.53515625 9.64453125 C-39.51144222 -2.37979602 -18.03098288 -11.90935289 0 0 Z " fill="#FAFCFE" transform="translate(1189.90625,235.421875)"/>
<path d="M0 0 C2.88530022 -0.00973202 5.76989454 -0.04084944 8.6550293 -0.07226562 C29.11811445 -0.19076428 43.97607178 4.30909714 59.45776367 18.24023438 C60.20155273 18.88992188 60.9453418 19.53960938 61.71166992 20.20898438 C72.60287226 30.29419641 77.26489937 44.7000494 78.45776367 59.24023438 C78.60203313 63.78610949 78.59699647 68.32951055 78.59147644 72.87738037 C78.59334667 74.26166605 78.59564821 75.64595121 78.59834176 77.03023553 C78.60444003 80.81992824 78.6043285 84.60959883 78.60314739 88.39929533 C78.60294288 92.49213212 78.60846691 96.5849619 78.61320496 100.67779541 C78.62150127 108.69118796 78.62425934 116.70457314 78.62481733 124.71796963 C78.62529298 131.2336956 78.62735017 137.74941914 78.63051796 144.26514435 C78.63932179 162.75050198 78.64393777 181.23585381 78.64318749 199.72121355 C78.64314753 200.71716816 78.64310757 201.71312276 78.64306641 202.73925781 C78.64302553 203.73643264 78.64298464 204.73360746 78.64294253 205.76099971 C78.64253614 221.91871048 78.65210443 238.07639795 78.66620477 254.23410198 C78.68057857 270.83655704 78.6874744 287.43900074 78.686611 304.04146218 C78.68627937 313.35770671 78.68901134 322.6739268 78.69978905 331.99016571 C78.70890725 339.92257908 78.71105846 347.85495693 78.70427962 355.78737327 C78.70102107 359.83137248 78.70093364 363.87530359 78.70963287 367.91929626 C78.71752829 371.62789407 78.71603562 375.33637011 78.70734874 379.04496506 C78.70510147 381.00811001 78.71261846 382.97125882 78.72058839 384.93438888 C78.64953401 403.31107913 73.39796071 417.50403389 64.45776367 433.24023438 C64.07104492 433.9646875 63.68432617 434.68914062 63.28588867 435.43554688 C59.4960036 441.70343373 52.51777323 445.42577437 46.45776367 449.24023438 C45.78874023 449.66433594 45.1197168 450.0884375 44.43041992 450.52539062 C26.04867025 460.82083772 3.26636077 460.35493488 -17.1322937 460.58969116 C-18.50715443 460.60643458 -19.88196022 460.62887454 -21.25662231 460.65762329 C-42.26133845 461.04905969 -60.71496656 451.56846155 -76.54223633 438.24023438 C-79.07730696 435.43215613 -80.852613 432.61381116 -82.54223633 429.24023438 C-82.98825195 428.42167969 -83.43426758 427.603125 -83.89379883 426.75976562 C-91.49243987 411.71801129 -91.69461227 394.26813125 -91.68267822 377.76986694 C-91.68564934 376.46557727 -91.68862047 375.16128761 -91.69168162 373.81747401 C-91.69967071 370.2308296 -91.70153661 366.6442053 -91.70227909 363.05755305 C-91.70414385 359.17598747 -91.71169803 355.29443197 -91.71841431 351.41287231 C-91.73193924 342.94157153 -91.73801285 334.47027552 -91.74242496 325.99896574 C-91.74519663 320.70076238 -91.74943556 315.40256082 -91.75392914 310.10435867 C-91.7661129 295.40918022 -91.77641479 280.7140032 -91.77980423 266.01881981 C-91.7800238 265.08013378 -91.78024336 264.14144775 -91.78046958 263.17431668 C-91.78068786 262.23350879 -91.78090614 261.29270091 -91.78113103 260.32338369 C-91.78157448 258.41724928 -91.78202104 256.51111487 -91.7824707 254.60498047 C-91.78269213 253.65949135 -91.78291356 252.71400223 -91.7831417 251.73986192 C-91.78708794 236.42709529 -91.80454067 221.11437628 -91.82783023 205.80162804 C-91.85159749 190.04652645 -91.86400848 174.29144871 -91.86517215 158.53632891 C-91.86608575 149.70395534 -91.87175864 140.87164392 -91.88999176 132.03928757 C-91.90546534 124.5177581 -91.91047062 116.99630999 -91.90225366 109.47476761 C-91.89837302 105.64463895 -91.8991486 101.81467379 -91.913311 97.98456573 C-92.08608597 48.33100273 -92.08608597 48.33100273 -76.54223633 29.24023438 C-75.83196289 28.89347656 -75.12168945 28.54671875 -74.38989258 28.18945312 C-73.78016602 27.87621094 -73.17043945 27.56296875 -72.54223633 27.24023438 C-72.20363815 25.90822831 -71.87098385 24.57470579 -71.54223633 23.24023438 C-69.54614258 21.09960938 -69.54614258 21.09960938 -67.10473633 18.99023438 C-66.30165039 18.28382813 -65.49856445 17.57742188 -64.67114258 16.84960938 C-62.54223633 15.24023438 -62.54223633 15.24023438 -60.54223633 15.24023438 C-60.54223633 14.58023438 -60.54223633 13.92023437 -60.54223633 13.24023438 C-51.34081781 6.3881142 -40.829576 2.66348195 -29.54223633 1.24023438 C-28.86781494 1.15338379 -28.19339355 1.0665332 -27.49853516 0.97705078 C-18.36055819 -0.03153996 -9.18215729 0.01870569 0 0 Z " fill="#FCFEFD" transform="translate(858.542236328125,696.759765625)"/>
<path d="M0 0 C0.93585938 0.18771973 1.87171875 0.37543945 2.8359375 0.56884766 C9.57755243 2.14033965 14.8965589 5.04395941 20.625 8.875 C21.54152344 9.47183594 22.45804688 10.06867187 23.40234375 10.68359375 C37.07435796 20.99323195 48.43511216 38.98930903 51.625 55.875 C51.99128398 59.27212367 52.12430044 62.66202374 52.23291016 66.07617188 C52.28888335 67.61826954 52.28888335 67.61826954 52.34598732 69.19152069 C52.86024131 85.00643166 52.8528988 100.83460772 52.8984375 116.65625 C52.90241067 117.94185098 52.90241067 117.94185098 52.9064641 119.25342369 C52.93152801 127.36940138 52.95344046 135.48537988 52.96619225 143.60138702 C52.98246728 153.87720169 53.01586891 164.15264121 53.07259309 174.42831469 C53.11144065 181.71900931 53.13084052 189.00960399 53.13611281 196.3003993 C53.13973679 200.6289522 53.15144557 204.95709908 53.18421555 209.28553772 C53.21457246 213.35057324 53.22051143 217.41496216 53.20883179 221.48008728 C53.20861356 222.95696444 53.21670607 224.43387438 53.23448563 225.91064453 C53.4448539 244.41195786 47.54172255 260.26434744 35.62109375 274.4609375 C33.61284757 276.82972767 33.61284757 276.82972767 31.91015625 279.2890625 C22.29478616 292.81845383 4.35707714 298.00463167 -11.375 300.875 C-19.80472619 302.18013989 -28.34282498 302.06117323 -36.85107422 302.06030273 C-39.2381373 302.06248913 -41.62473696 302.08070405 -44.01171875 302.09960938 C-55.53646225 302.14490133 -66.83563835 302.14760066 -77.0625 296.1875 C-77.69551025 295.83300781 -78.32852051 295.47851562 -78.98071289 295.11328125 C-84.15855809 292.14808292 -88.9139522 288.84922711 -93.375 284.875 C-94.34953125 284.02228516 -94.34953125 284.02228516 -95.34375 283.15234375 C-101.71551011 277.19778222 -106.55185459 270.09002287 -111.375 262.875 C-112.18710937 261.68197266 -112.18710937 261.68197266 -113.015625 260.46484375 C-120.81267123 247.90032649 -120.52163762 231.29726828 -120.69140625 216.9921875 C-120.71226255 215.48975247 -120.73339847 213.98732129 -120.75479126 212.4848938 C-120.81100081 208.42036386 -120.86055193 204.35578044 -120.9078331 200.2911377 C-120.93755429 197.74534984 -120.96850124 195.19957918 -120.99966431 192.65380859 C-121.31519271 166.58046154 -121.50570781 140.50663958 -121.55622482 114.43143463 C-121.56246807 111.88800778 -121.57236105 109.34461922 -121.58328247 106.8012085 C-121.59995289 102.78276805 -121.60609271 98.76444124 -121.60425949 94.74596786 C-121.60504833 93.28084618 -121.60909874 91.81572155 -121.61687088 90.35062027 C-121.74770457 63.79801396 -114.80646731 37.84473234 -96.5390625 17.8671875 C-72.53116231 -4.72252449 -30.70165663 -6.32237641 0 0 Z " fill="#FBFCFE" transform="translate(621.375,856.125)"/>
<path d="M0 0 C1.71413086 -0.01836914 1.71413086 -0.01836914 3.46289062 -0.03710938 C14.49088553 -0.05581146 25.0765052 1.3142736 35.625 4.5625 C36.35074219 4.78309082 37.07648438 5.00368164 37.82421875 5.23095703 C42.75775933 6.77046213 47.45303094 8.3557913 51.8125 11.1875 C52.534375 11.65542969 53.25625 12.12335937 54 12.60546875 C69.35529947 23.52536922 78.10945654 43.9338388 81.3828125 62.0234375 C82.56811968 70.75160852 82.97986427 79.4204743 83.015625 88.22265625 C83.02132507 89.34079208 83.02702515 90.45892792 83.03289795 91.61094666 C83.04228652 93.96482414 83.04885726 96.31871441 83.05273438 98.67260742 C83.0624078 102.21622482 83.09347831 105.75925331 83.125 109.30273438 C83.19993386 125.07085155 83.25341693 141.48491426 76.5625 156.125 C76.25803955 156.82044922 75.9535791 157.51589844 75.63989258 158.23242188 C67.60220594 176.0911892 55.41958078 186.23515874 37.58203125 193.50390625 C26.37915172 197.20181167 14.51460481 197.65491369 2.8125 198.1875 C1.5764502 198.24486328 0.34040039 198.30222656 -0.93310547 198.36132812 C-16.23910584 198.97071405 -30.38861141 199.48519615 -44.1875 192.1875 C-44.87424805 191.82881836 -45.56099609 191.47013672 -46.26855469 191.10058594 C-52.86864734 187.56903705 -58.65087525 184.31049247 -63.1875 178.1875 C-63.8578125 177.53265625 -64.528125 176.8778125 -65.21875 176.203125 C-81.61075705 159.42083206 -83.51381039 135.56425927 -83.48828125 113.42578125 C-83.49218704 111.9776345 -83.49652541 110.52948886 -83.50126648 109.0813446 C-83.50864208 106.07722216 -83.50849945 103.07321745 -83.50317383 100.0690918 C-83.4973599 96.25699333 -83.51439869 92.4453777 -83.5375185 88.63335896 C-83.55237671 85.65357238 -83.55311181 82.67389933 -83.55000877 79.69408226 C-83.55051492 78.28973617 -83.55561634 76.88538249 -83.56582069 75.48107338 C-83.68372607 57.01120581 -78.90460965 41.2708395 -68.1875 26.1875 C-67.68863281 25.47851562 -67.18976563 24.76953125 -66.67578125 24.0390625 C-55.14967243 9.34835453 -35.26635597 3.4259146 -17.625 0.62109375 C-11.76943052 -0.0686164 -5.8880449 0.00326569 0 0 Z " fill="#FBFCFE" transform="translate(325.1875,958.8125)"/>
<path d="M0 0 C0.33 0 0.66 0 1 0 C1 61.05 1 122.1 1 185 C-263.99 185 -528.98 185 -802 185 C-802 184.67 -802 184.34 -802 184 C-800.97672938 183.99826375 -799.95345876 183.9965275 -798.89917994 183.99473864 C-753.42118596 183.91752233 -707.94319387 183.83928037 -662.46520996 183.7563324 C-661.76783905 183.75506072 -661.07046814 183.75378904 -660.35196478 183.75247882 C-645.16674004 183.72478243 -629.98151562 183.69691821 -614.7962915 183.66888306 C-607.34075689 183.65511957 -599.88522221 183.64139285 -592.4296875 183.62768555 C-591.68809064 183.62632146 -590.94649379 183.62495738 -590.1824243 183.62355196 C-568.67907442 183.58401443 -547.17572217 183.54622446 -525.67236638 183.51004557 C-448.44813455 183.38009269 -371.22400931 183.23047055 -294 183 C-292.92939394 182.99683505 -291.85878788 182.99367011 -290.75573921 182.99040926 C-266.23032422 182.91784736 -241.7051679 182.82745265 -217.18004444 182.68655238 C-212.29084515 182.6590698 -207.40165146 182.63858024 -202.5124054 182.62158394 C-196.25446838 182.59911294 -189.99677715 182.56291387 -183.73898697 182.51466298 C-181.56270691 182.49995633 -179.38638884 182.48985311 -177.21006393 182.48526073 C-160.79499762 182.44574588 -144.6140533 181.30904355 -128.875 176.25 C-128.05136963 175.99250977 -127.22773926 175.73501953 -126.37915039 175.46972656 C-105.64789083 168.82838853 -86.40572864 159.11329739 -68.80175781 146.30957031 C-67.07335139 145.05331394 -65.33134557 143.81840932 -63.5859375 142.5859375 C-57.53233392 138.21472499 -52.66757943 133.79458045 -48 128 C-46.70280965 126.52353955 -45.40557553 125.04711736 -44.10766602 123.57128906 C-13.97094439 88.90136623 -2.26586114 45.08282333 0 0 Z " fill="#FEFEFE" transform="translate(1358,1133)"/>
<path d="M0 0 C244.2 0 488.4 0 740 0 C740 0.33 740 0.66 740 1 C738.78168853 1.00135653 737.56337707 1.00271306 736.30814707 1.00411069 C682.59274303 1.06405001 628.87734231 1.12644871 575.16195679 1.20132446 C573.94132727 1.2030249 573.94132727 1.2030249 572.69603858 1.20475969 C555.00923889 1.2294135 537.32243985 1.25450648 519.63564143 1.28005161 C510.96152149 1.29257701 502.28740141 1.30500541 493.61328125 1.31738281 C492.75012099 1.31861614 491.88696074 1.31984946 490.99764411 1.32112016 C463.04091757 1.36102063 435.08418784 1.39452065 407.12744925 1.42468691 C378.38837711 1.45573125 349.64932053 1.49326194 320.9102677 1.53890612 C316.84723601 1.54535613 312.78420421 1.55173231 308.72117233 1.55806351 C307.52172656 1.55993596 307.52172656 1.55993596 306.29804956 1.56184625 C293.44759423 1.58171751 280.59714063 1.5947899 267.74667461 1.60529328 C254.81467304 1.61600935 241.88269724 1.63395128 228.95071568 1.65916704 C221.27600331 1.67391495 213.60133038 1.68322455 205.92660372 1.68456683 C200.18152073 1.68618433 194.43649575 1.6982107 188.69143634 1.71413441 C186.37754248 1.71895871 184.06363874 1.72049212 181.74974091 1.71827881 C135.53026044 1.68134691 96.3137775 14.65222246 61 45 C59.7934375 45.97066406 59.7934375 45.97066406 58.5625 46.9609375 C50.32989555 53.84782776 44.23650757 62.34521444 38 71 C37.3188916 71.93223389 37.3188916 71.93223389 36.62402344 72.88330078 C16.5332054 100.59766273 1.11233352 138.45744276 1 173 C0.67 173 0.34 173 0 173 C0 115.91 0 58.82 0 0 Z " fill="#FEFEFE" transform="translate(0,0)"/>
<path d="M0 0 C0.33 0 0.66 0 1 0 C0.98839844 0.80703369 0.97679688 1.61406738 0.96484375 2.44555664 C0.7957409 23.8717935 3.62844426 42.54752185 10 63 C10.26474121 63.8770459 10.52948242 64.7540918 10.80224609 65.65771484 C18.21356346 89.92174561 31.22316633 111.3301814 47 131 C47.7734375 131.99 48.546875 132.98 49.34375 134 C53.82382123 139.64611717 58.37316499 144.50791005 64 149 C65.05212977 149.86322465 66.10420893 150.72651099 67.15625 151.58984375 C102.99244466 180.6818271 144.79807498 190.16334858 190 193 C190 193.33 190 193.66 190 194 C127.3 194 64.6 194 0 194 C0 129.98 0 65.96 0 0 Z " fill="#FEFEFE" transform="translate(0,1124)"/>
<path d="M0 0 C53.79 0 107.58 0 163 0 C163 61.38 163 122.76 163 186 C162.67 186 162.34 186 162 186 C161.94054199 185.09797852 161.94054199 185.09797852 161.87988281 184.17773438 C158.51596675 135.00137024 145.74858932 87.74858932 110 52 C109.24847656 51.24847656 108.49695312 50.49695312 107.72265625 49.72265625 C78.45153968 22.05269477 39.87393419 5.05093754 0 1 C0 0.67 0 0.34 0 0 Z " fill="#FEFEFE" transform="translate(1196,0)"/>
<path d="M0 0 C0.99 0 1.98 0 3 0 C3 97.68 3 195.36 3 296 C4.65 296.33 6.3 296.66 8 297 C7.93886433 342.70527021 7.87535494 388.41053667 7.79867554 434.11578369 C7.79754191 434.79190548 7.79640829 435.46802728 7.79524031 436.16463761 C7.77059063 450.85750199 7.74549784 465.55036558 7.71994839 480.24322842 C7.7074222 487.44828495 7.69499396 494.65334165 7.68261719 501.85839844 C7.68138386 502.57539989 7.68015054 503.29240135 7.67887984 504.03113012 C7.63892812 527.28403337 7.60544804 550.53694048 7.57531309 573.78985835 C7.54431934 597.67914242 7.50681844 621.5684076 7.46109388 645.45766823 C7.45464319 648.82948795 7.44826713 652.2013078 7.44193649 655.57312775 C7.44068819 656.23677029 7.43943988 656.90041282 7.43815375 657.58416574 C7.41699599 668.94082211 7.40394384 680.29747557 7.39273749 691.65414575 C7.38222571 701.7386125 7.36443571 711.82304973 7.34083296 721.90749428 C7.32741682 727.73266471 7.31729517 733.55779363 7.31578636 739.38298035 C7.31433605 744.70998398 7.3038011 750.03688748 7.28586559 755.3638604 C7.28099314 757.29661839 7.27953049 759.22938842 7.28172119 761.16215131 C7.28420126 763.77871107 7.27454167 766.39494801 7.26171303 769.01147079 C7.26536271 769.77104855 7.26901239 770.53062631 7.27277267 771.31322157 C7.24052446 775.10504572 6.90993942 777.72198931 5 781 C5 781.99 5 782.98 5 784 C5.99 784 6.98 784 8 784 C7.814375 784.721875 7.62875 785.44375 7.4375 786.1875 C6.97825014 789.13982052 7.37578522 791.11300664 8 794 C7.67 794.66 7.34 795.32 7 796 C6.92803899 798.50999995 6.90702012 800.99127173 6.9375 803.5 C6.94201172 804.18964844 6.94652344 804.87929687 6.95117188 805.58984375 C6.96347589 807.39326064 6.98138731 809.19663719 7 811 C7 811.66 7 812.32 7 813 C7.1547747 814.37638932 7.32275148 815.751324 7.5 817.125 C7.665 818.40375 7.83 819.6825 8 821 C7.34 819.68 6.68 818.36 6 817 C5.67 818.98 5.34 820.96 5 823 C0.48398473 814.93568703 0.58375494 806.67731675 0.38251591 797.65374756 C0.34476551 796.22395132 0.30674795 794.79416212 0.26847995 793.36437964 C-0.10696657 778.52293659 -0.13957844 763.68018833 -0.12226619 748.83490026 C-0.1187511 744.82498394 -0.12121774 740.81506982 -0.12284368 736.80515289 C-0.12489355 729.81429987 -0.12331522 722.82345546 -0.11920547 715.83260345 C-0.11311186 705.43784205 -0.11287504 695.04308595 -0.11374746 684.64832309 C-0.11505439 667.15348654 -0.11174666 649.6586538 -0.10573006 632.16381836 C-0.09979561 614.86319968 -0.09596061 597.56258258 -0.09487724 580.26196289 C-0.0948085 579.18281207 -0.09473976 578.10366125 -0.09466894 576.99180889 C-0.09433057 571.51046054 -0.0940292 566.02911218 -0.09374207 560.54776382 C-0.09164644 521.80983626 -0.08492249 483.07191077 -0.07543945 444.33398438 C-0.06624242 406.72070324 -0.05916499 369.10742266 -0.05493164 331.49414062 C-0.05480011 330.33298585 -0.05466859 329.17183108 -0.05453308 327.9754898 C-0.05321446 316.31378569 -0.05193866 304.65208158 -0.05069422 292.99037747 C-0.04815859 269.2380511 -0.04533734 245.48572476 -0.04234314 221.73339844 C-0.04220585 220.64151036 -0.04206856 219.54962227 -0.04192711 218.42464668 C-0.03273976 145.61643026 -0.01689614 72.80821499 0 0 Z " fill="#3E94EE" transform="translate(0,344)"/>
<path d="M0 0 C0.99 0 1.98 0 3 0 C3.02288991 37.57247495 3.04051021 75.14494885 3.05106533 112.71742937 C3.05231603 117.15341647 3.05361036 121.58940355 3.05493164 126.02539062 C3.05519395 126.90851411 3.05545626 127.7916376 3.05572652 128.70152241 C3.06007757 143.00007654 3.06796203 157.29862665 3.0771528 171.5971784 C3.08650501 186.26929779 3.09205894 200.94141507 3.09408849 215.61353731 C3.09546046 224.66666942 3.09979342 233.71979015 3.10791647 242.77291876 C3.11320325 248.98136283 3.11479989 255.18980103 3.11350138 261.39824718 C3.11286103 264.97991734 3.1138413 268.56156763 3.11920547 272.14323425 C3.12498257 276.02904989 3.12298587 279.91483972 3.12025452 283.80065918 C3.12462378 285.49328613 3.12462378 285.49328613 3.12908131 287.22010756 C3.12709026 288.26712103 3.12509921 289.31413451 3.12304783 290.39287567 C3.12342755 291.28901565 3.12380727 292.18515563 3.1241985 293.10845137 C2.99695365 296.07092405 2.61487896 298.96059829 2.22746221 301.89831421 C1.84806138 305.40386945 1.85648373 308.89544425 1.8613348 312.41825104 C1.85849258 313.23114767 1.85565036 314.04404429 1.85272202 314.88157415 C1.84441662 317.59867213 1.84311009 320.31572724 1.84178162 323.03283691 C1.83721344 325.00314735 1.83221304 326.97345682 1.82681805 328.94376516 C1.81325673 334.35283738 1.80582439 339.76190333 1.79939139 345.17098808 C1.79137864 351.00594695 1.77768387 356.8408928 1.76467896 362.67584229 C1.74292863 372.78359062 1.72477886 382.89134027 1.70907402 392.99909973 C1.68636226 407.61322724 1.65822451 422.22734094 1.62875474 436.84145612 C1.58100742 460.55184959 1.53781788 484.26224939 1.49731445 507.97265625 C1.45795852 531.00521301 1.41653453 554.03776454 1.37231445 577.0703125 C1.37095192 577.7804309 1.36958939 578.49054931 1.36818558 579.22218645 C1.35450006 586.35356793 1.34077253 593.48494933 1.32701423 600.61633067 C1.29898862 615.14343059 1.27124334 629.67053105 1.2436676 644.19763184 C1.2423994 644.86554624 1.2411312 645.53346065 1.23982458 646.22161489 C1.15518639 690.81440141 1.07710318 735.40719989 1 780 C0.67 780 0.34 780 0 780 C0 522.6 0 265.2 0 0 Z " fill="#64A9F1" transform="translate(0,344)"/>
<path d="M0 0 C0.33 0 0.66 0 1 0 C1.17456185 30.16662412 1.34056114 60.33329219 1.5 90.5 C1.50594854 91.62369366 1.51189708 92.74738731 1.51802588 93.90513229 C1.86088657 158.77029515 2.09696834 223.63387692 2.0625 288.5 C2.06207577 289.3231583 2.06165154 290.1463166 2.06121445 290.9944191 C2.05054855 311.3296257 2.03129309 331.66481388 2 352 C1.67 352 1.34 352 1 352 C0.99576806 351.23854644 0.99153612 350.47709288 0.98717594 349.69256496 C0.88382216 331.15538297 0.77517736 312.61823888 0.66066074 294.0811224 C0.60540843 285.11667602 0.5519397 276.15222565 0.50268555 267.18774414 C0.45974567 259.37331526 0.41344322 251.55891474 0.36312145 243.74452978 C0.33659935 239.60779669 0.31174855 235.47106894 0.29092598 231.3343029 C0.27126074 227.43802428 0.24708822 223.54179924 0.21950912 219.64556885 C0.21019081 218.21818076 0.20249709 216.79078096 0.19658089 215.36337471 C0.18823036 213.40835843 0.17336635 211.45337326 0.15821838 209.49839783 C0.15176583 208.40607314 0.14531328 207.31374846 0.1386652 206.18832302 C-0.01127425 202.74077169 -0.46035719 199.40651971 -1 196 C-1.66 196 -2.32 196 -3 196 C-3 159.04 -3 122.08 -3 84 C-1.515 83.505 -1.515 83.505 0 83 C0 55.61 0 28.22 0 0 Z " fill="#4595ED" transform="translate(1028,581)"/>
<path d="M0 0 C0.33 0.99 0.66 1.98 1 3 C1.66 3 2.32 3 3 3 C3.33 2.01 3.66 1.02 4 0 C4 3.96 4 7.92 4 12 C3.67 12 3.34 12 3 12 C2.67 118.92 2.34 225.84 2 336 C1.67 336 1.34 336 1 336 C0.67 225.12 0.34 114.24 0 0 Z " fill="#599CEB" transform="translate(936,752)"/>
<path d="M0 0 C1.98 0.66 3.96 1.32 6 2 C4.66083303 11.10633542 -0.60924217 17.06617299 -7.51171875 22.66796875 C-9.12882545 23.95079945 -9.12882545 23.95079945 -10 26 C-13.6128101 27.44512404 -16.06687842 28 -20 28 C-20.33 26.68 -20.66 25.36 -21 24 C-20.34 24 -19.68 24 -19 24 C-18.7525 23.278125 -18.505 22.55625 -18.25 21.8125 C-16.88615909 18.74385796 -15.09045139 16.61306423 -13 14 C-12.690625 13.13375 -12.38125 12.2675 -12.0625 11.375 C-10.66447683 8.25000704 -8.96055532 7.62125648 -6 6 C-4.9171875 4.9171875 -4.9171875 4.9171875 -3.8125 3.8125 C-3.214375 3.214375 -2.61625 2.61625 -2 2 C-1.34 2 -0.68 2 0 2 C0 1.34 0 0.68 0 0 Z " fill="#217CEA" transform="translate(64,46)"/>
<path d="M0 0 C0.66 0.66 1.32 1.32 2 2 C4.06874034 2.6425235 4.06874034 2.6425235 6 3 C5.84402344 3.61746094 5.68804687 4.23492187 5.52734375 4.87109375 C4.32528333 10.10125069 3.9013345 14.3849528 4.70703125 19.68359375 C5.22448672 23.77494169 5.07734646 27.8834494 5 32 C4.34 31.01 3.68 30.02 3 29 C2.01 31.475 2.01 31.475 1 34 C-0.32 34 -1.64 34 -3 34 C-3.21248054 22.64409578 -3.34883277 10.93952039 0 0 Z " fill="#3F94EE" transform="translate(3,150)"/>
<path d="M0 0 C1.485 0.99 1.485 0.99 3 2 C-18.77777778 21.18518519 -18.77777778 21.18518519 -29 28 C-29.66 26.68 -30.32 25.36 -31 24 C-29.68 23.34 -28.36 22.68 -27 22 C-27 20.68 -27 19.36 -27 18 C-26.01 17.34 -25.02 16.68 -24 16 C-23.175 15.278125 -22.35 14.55625 -21.5 13.8125 C-20.675 13.214375 -19.85 12.61625 -19 12 C-18.01 12.33 -17.02 12.66 -16 13 C-15.67 12.01 -15.34 11.02 -15 10 C-13.29296875 9.26171875 -13.29296875 9.26171875 -11.1875 8.6875 C-6.76864377 7.21191765 -5.36027148 5.02120327 -3 1 C-2.01 0.67 -1.02 0.34 0 0 Z " fill="#E9F3FB" transform="translate(851,577)"/>
<path d="M0 0 C0.33 0 0.66 0 1 0 C1.33 28.05 1.66 56.1 2 85 C-1 83 -1 83 -1.6875 79.875 C-1.8421875 78.451875 -1.8421875 78.451875 -2 77 C-2.33 77 -2.66 77 -3 77 C-3 71.72 -3 66.44 -3 61 C-2.01 60.505 -2.01 60.505 -1 60 C-0.505 30.3 -0.505 30.3 0 0 Z " fill="#5EA6F2" transform="translate(500,1011)"/>
<path d="M0 0 C1.33496612 0.26266695 2.66788705 0.53572653 4 0.8125 C5.11375 1.03873047 5.11375 1.03873047 6.25 1.26953125 C9 2 9 2 12.60351562 3.52734375 C17.17035303 5.24999389 21.25600011 5.38779817 26.09375 5.29296875 C27.34194519 5.28660149 27.34194519 5.28660149 28.61535645 5.28010559 C31.24391593 5.26346307 33.87167667 5.22583976 36.5 5.1875 C38.29425967 5.17243444 40.0885315 5.15874933 41.8828125 5.14648438 C46.25551083 5.11360714 50.62762053 5.06192722 55 5 C55 5.33 55 5.66 55 6 C50.29796986 6.92947107 45.75187765 7.13223651 40.9765625 7.09765625 C40.23038666 7.0962413 39.48421082 7.09482635 38.71542358 7.09336853 C36.35190682 7.08780874 33.98848773 7.07526389 31.625 7.0625 C30.01432429 7.0574798 28.40364709 7.0529178 26.79296875 7.04882812 C22.86194201 7.03785251 18.93098752 7.02061596 15 7 C15 7.66 15 8.32 15 9 C11.37 8.34 7.74 7.68 4 7 C4.33 5.68 4.66 4.36 5 3 C3.02 3.66 1.04 4.32 -1 5 C-0.67 3.35 -0.34 1.7 0 0 Z " fill="#509BED" transform="translate(281,1151)"/>
<path d="M0 0 C0.33 0.99 0.66 1.98 1 3 C1.66 3 2.32 3 3 3 C3.33 2.34 3.66 1.68 4 1 C4 10.9 4 20.8 4 31 C3.34 30.67 2.68 30.34 2 30 C1.34 30.66 0.68 31.32 0 32 C0 21.44 0 10.88 0 0 Z " fill="#4A99ED" transform="translate(0,245)"/>
<path d="M0 0 C0.66 1.32 1.32 2.64 2 4 C1.01 4.33 0.02 4.66 -1 5 C-2.17082878 7.92914165 -2.17082878 7.92914165 -3 11 C-3.33 11.66 -3.66 12.32 -4 13 C-3.34 13.33 -2.68 13.66 -2 14 C-5.07617188 14.29296875 -5.07617188 14.29296875 -8.15234375 14.5859375 C-8.76207031 14.72257812 -9.37179687 14.85921875 -10 15 C-10.33 15.66 -10.66 16.32 -11 17 C-11.66 17 -12.32 17 -13 17 C-12.57838168 12.08111963 -10.57324099 10.26252438 -7 7 C-5.72389357 5.73446174 -4.45318832 4.4634576 -3.1875 3.1875 C-2.125 2.125 -1.0625 1.0625 0 0 Z " fill="#F6FBF8" transform="translate(1313,1258)"/>
<path d="M0 0 C0.33 0 0.66 0 1 0 C1 3.3 1 6.6 1 10 C1.66 10 2.32 10 3 10 C3 15.28 3 20.56 3 26 C1.68 26 0.36 26 -1 26 C-1.16311941 17.28217363 -0.65655389 8.68761489 0 0 Z " fill="#559EF0" transform="translate(1,158)"/>
<path d="M0 0 C0.66 0 1.32 0 2 0 C2 0.66 2 1.32 2 2 C2.66 2 3.32 2 4 2 C3.24984418 9.37653219 2.16558465 16.67831776 1 24 C0.34 24 -0.32 24 -1 24 C-0.67 21.36 -0.34 18.72 0 16 C-0.66 15.67 -1.32 15.34 -2 15 C-1.67 14.01 -1.34 13.02 -1 12 C-0.77674186 9.94106379 -0.59294241 7.87766347 -0.4375 5.8125 C-0.35371094 4.72582031 -0.26992188 3.63914062 -0.18359375 2.51953125 C-0.12300781 1.68808594 -0.06242187 0.85664062 0 0 Z " fill="#398EE9" transform="translate(499,912)"/>
<path d="M0 0 C0 0.99 0 1.98 0 3 C-0.99 3.33 -1.98 3.66 -3 4 C-3.061875 4.94875 -3.12375 5.8975 -3.1875 6.875 C-3.455625 7.90625 -3.72375 8.9375 -4 10 C-6.5 11.125 -6.5 11.125 -9 12 C-9.88693303 14.04105639 -9.88693303 14.04105639 -10 16 C-12.97 15.505 -12.97 15.505 -16 15 C-14.85481752 13.85481752 -13.70931031 12.70995858 -12.5625 11.56640625 C-11.45319134 10.45432432 -10.34959619 9.33653005 -9.25 8.21484375 C-6.31206917 5.23259069 -3.47754086 2.36472778 0 0 Z " fill="#388EED" transform="translate(1191,292)"/>
<path d="M0 0 C0.66 0 1.32 0 2 0 C3.07525194 2.65228812 4.09456151 5.28368454 5 8 C6.05270463 9.15811388 6.05270463 9.15811388 8 10 C8 12.31 8 14.62 8 17 C8.66 17.33 9.32 17.66 10 18 C9.34 18 8.68 18 8 18 C7.67 18.99 7.34 19.98 7 21 C3.55629555 14.08630327 1.11332019 7.66030756 0 0 Z " fill="#E9F7FD" transform="translate(1032,1096)"/>
<path d="M0 0 C0.33 0 0.66 0 1 0 C1.01981934 0.92224365 1.03963867 1.8444873 1.06005859 2.79467773 C1.13871682 6.25585685 1.22542535 9.71664848 1.31738281 13.17749023 C1.3553815 14.66797273 1.39028196 16.15853789 1.421875 17.64916992 C1.59316667 25.63296743 1.85082519 33.25073962 4 41 C2.68 40.67 1.36 40.34 0 40 C0 26.8 0 13.6 0 0 Z " fill="#EDF7FD" transform="translate(0,1124)"/>
<path d="M0 0 C-0.99 0.33 -1.98 0.66 -3 1 C-2.01 1.33 -1.02 1.66 0 2 C0 2.66 0 3.32 0 4 C-2.99480917 4.8723412 -5.63575911 5.10829766 -8.75 5.0625 C-9.54921875 5.05347656 -10.3484375 5.04445313 -11.171875 5.03515625 C-11.77515625 5.02355469 -12.3784375 5.01195312 -13 5 C-12.34 4.34 -11.68 3.68 -11 3 C-12.65 2.67 -14.3 2.34 -16 2 C-16 1.67 -16 1.34 -16 1 C-14.0852312 0.63571223 -12.16807707 0.28394694 -10.25 -0.0625 C-9.18265625 -0.25972656 -8.1153125 -0.45695313 -7.015625 -0.66015625 C-4.25228095 -0.97156937 -2.59053383 -0.8991416 0 0 Z " fill="#3D90EB" transform="translate(240,905)"/>
<path d="M0 0 C0.66 0.33 1.32 0.66 2 1 C0.74337038 4.87460798 -0.39604563 6.9860255 -4 9 C-6.33333333 9 -8.66666667 9 -11 9 C-7.37 6.03 -3.74 3.06 0 0 Z M-6 8 C-6 8.99 -6 9.98 -6 11 C-6.99 11 -7.98 11 -9 11 C-8.01 10.01 -7.02 9.02 -6 8 Z " fill="#3C8FE8" transform="translate(879,558)"/>
<path d="M0 0 C1.85646001 2.78469002 2.45157815 4.2681416 3.125 7.4375 C3.29257812 8.19933594 3.46015625 8.96117187 3.6328125 9.74609375 C4 12 4 12 4 16 C3.34 16 2.68 16 2 16 C2 16.66 2 17.32 2 18 C1.34 18 0.68 18 0 18 C-1.03863773 11.76817361 -0.83288874 6.25307239 0 0 Z " fill="#E4F3FA" transform="translate(402,1006)"/>
<path d="M0 0 C0.66 0.99 1.32 1.98 2 3 C2.99 3.66 3.98 4.32 5 5 C3.71372289 6.17260611 2.42080217 7.3379283 1.125 8.5 C0.40570312 9.1496875 -0.31359375 9.799375 -1.0546875 10.46875 C-3 12 -3 12 -5 12 C-5 11.34 -5 10.68 -5 10 C-4.34 10 -3.68 10 -3 10 C-2.67 9.01 -2.34 8.02 -2 7 C-3.98 7.33 -5.96 7.66 -8 8 C-7.67 6.68 -7.34 5.36 -7 4 C-4.69 4 -2.38 4 0 4 C0 2.68 0 1.36 0 0 Z " fill="#3B8FEB" transform="translate(704,596)"/>
<path d="M0 0 C0.66 0 1.32 0 2 0 C1.67567593 3.06382739 1.01098513 3.98970965 -1.28515625 6.140625 C-2.65994141 7.18476562 -2.65994141 7.18476562 -4.0625 8.25 C-4.98160156 8.95640625 -5.90070312 9.6628125 -6.84765625 10.390625 C-7.91306641 11.18726563 -7.91306641 11.18726563 -9 12 C-9.66 11.34 -10.32 10.68 -11 10 C-8.69 7.03 -6.38 4.06 -4 1 C-2.68 1.33 -1.36 1.66 0 2 C0 1.34 0 0.68 0 0 Z " fill="#3B91F1" transform="translate(762,553)"/>
<path d="M0 0 C-0.33 0.66 -0.66 1.32 -1 2 C-1.66 2 -2.32 2 -3 2 C-3.33 2.99 -3.66 3.98 -4 5 C-5.77734375 6.60546875 -5.77734375 6.60546875 -7.9375 8.1875 C-8.64777344 8.71730469 -9.35804688 9.24710937 -10.08984375 9.79296875 C-12 11 -12 11 -14 11 C-14 11.66 -14 12.32 -14 13 C-14.66 13 -15.32 13 -16 13 C-16 12.01 -16 11.02 -16 10 C-14.68 9.67 -13.36 9.34 -12 9 C-12 8.01 -12 7.02 -12 6 C-10.35 5.67 -8.7 5.34 -7 5 C-7 3.68 -7 2.36 -7 1 C-3.375 -1.125 -3.375 -1.125 0 0 Z " fill="#4293EC" transform="translate(908,435)"/>
<path d="M0 0 C0.33 0 0.66 0 1 0 C1 2.66666667 1 5.33333333 1 8 C1.309375 9.2065625 1.309375 9.2065625 1.625 10.4375 C2 13 2 13 0 16 C-2.125 17.1875 -2.125 17.1875 -4 18 C-3.52450066 15.37428665 -3.04477433 12.7494696 -2.5625 10.125 C-2.42779297 9.37863281 -2.29308594 8.63226562 -2.15429688 7.86328125 C-1.11328125 2.2265625 -1.11328125 2.2265625 0 0 Z " fill="#E7F3FA" transform="translate(772,744)"/>
<path d="M0 0 C0.66 0.33 1.32 0.66 2 1 C1.67 3.64 1.34 6.28 1 9 C-0.65 9.33 -2.3 9.66 -4 10 C-4 9.01 -4 8.02 -4 7 C-5.65 7.33 -7.3 7.66 -9 8 C-6.14723863 5.06799526 -3.34920216 2.35684596 0 0 Z " fill="#3C91ED" transform="translate(975,478)"/>
<path d="M0 0 C1.34937238 5.03138075 1.34937238 5.03138075 0 8 C-1.96185416 9.71140469 -3.96302383 11.37873325 -6 13 C-6.99 14.485 -6.99 14.485 -8 16 C-10.125 16.6875 -10.125 16.6875 -12 17 C-11.63648438 16.52691406 -11.27296875 16.05382813 -10.8984375 15.56640625 C-7.05368143 10.50907327 -3.47221015 5.31913045 0 0 Z " fill="#F2FBFA" transform="translate(1327,1239)"/>
<path d="M0 0 C-0.66 0 -1.32 0 -2 0 C-2 0.66 -2 1.32 -2 2 C0.31 2.33 2.62 2.66 5 3 C5 3.33 5 3.66 5 4 C2.20807795 4.05380578 -0.5828141 4.09357669 -3.375 4.125 C-4.1690625 4.14175781 -4.963125 4.15851563 -5.78125 4.17578125 C-7.85492015 4.19335473 -9.92883241 4.10335168 -12 4 C-12.66 3.34 -13.32 2.68 -14 2 C-12.23225581 1.46877637 -10.46065917 0.95035927 -8.6875 0.4375 C-7.70136719 0.14746094 -6.71523438 -0.14257812 -5.69921875 -0.44140625 C-3 -1 -3 -1 0 0 Z " fill="#3590EE" transform="translate(624,1154)"/>
<path d="M0 0 C0.33 0 0.66 0 1 0 C1 7.26 1 14.52 1 22 C0.01 22 -0.98 22 -2 22 C-2 15.73 -2 9.46 -2 3 C-1.34 3 -0.68 3 0 3 C0 2.01 0 1.02 0 0 Z " fill="#3E91EB" transform="translate(675,914)"/>
<path d="M0 0 C0.66 0 1.32 0 2 0 C2 0.66 2 1.32 2 2 C2.66 2 3.32 2 4 2 C5.04865737 10.80872193 4.84831606 19.17751293 4 28 C3.67 28 3.34 28 3 28 C2.95101563 26.81664062 2.90203125 25.63328125 2.8515625 24.4140625 C2.47057735 16.09222062 1.9665702 8.12849016 0 0 Z " fill="#539EF1" transform="translate(1201,246)"/>
<path d="M0 0 C1.65 0 3.3 0 5 0 C5 0.99 5 1.98 5 3 C1.04 4.65 -2.92 6.3 -7 8 C-6.67 6.35 -6.34 4.7 -6 3 C-4.02 2.67 -2.04 2.34 0 2 C0 1.34 0 0.68 0 0 Z " fill="#F5FAF6" transform="translate(483,817)"/>
<path d="M0 0 C2.69082872 0.17635452 5.32851446 0.61835921 8 1 C7.67 1.99 7.34 2.98 7 4 C7.66868314 7.11332248 7.66868314 7.11332248 10.0625 8.1875 C10.701875 8.455625 11.34125 8.72375 12 9 C11.67 9.99 11.34 10.98 11 12 C9.56145942 10.73034469 8.12420873 9.45922782 6.6875 8.1875 C5.88699219 7.47980469 5.08648438 6.77210938 4.26171875 6.04296875 C2.45016838 4.40662878 0.70318297 2.74727832 -1 1 C-0.67 0.67 -0.34 0.34 0 0 Z " fill="#4792EA" transform="translate(908,705)"/>
<path d="M0 0 C3.67758005 3.28355362 5.81389118 6.62778237 8 11 C7.67 11.66 7.34 12.32 7 13 C4.5 11.1875 4.5 11.1875 2 9 C2 8.01 2 7.02 2 6 C1.34 6 0.68 6 0 6 C-0.33 6.66 -0.66 7.32 -1 8 C-2.2077558 4.37673261 -1.54311128 3.35853631 0 0 Z " fill="#4897EF" transform="translate(506,1112)"/>
<path d="M0 0 C0.66 0 1.32 0 2 0 C1.731875 1.051875 1.46375 2.10375 1.1875 3.1875 C-0.29446403 9.10469449 -1.64034184 15.05376166 -3 21 C-3.33 21 -3.66 21 -4 21 C-4.12086218 14.56744599 -3.82351864 8.38226945 -3 2 C-2.34 2 -1.68 2 -1 2 C-0.67 1.34 -0.34 0.68 0 0 Z " fill="#4491E7" transform="translate(246,1000)"/>
<path d="M0 0 C0.66 0 1.32 0 2 0 C2 1.98 2 3.96 2 6 C2.99 6 3.98 6 5 6 C5 11.28 5 16.56 5 22 C4.67 22 4.34 22 4 22 C4 19.69 4 17.38 4 15 C3.34 15 2.68 15 2 15 C1.34 10.05 0.68 5.1 0 0 Z " fill="#3E92ED" transform="translate(1200,553)"/>
<path d="M0 0 C0.33 0.99 0.66 1.98 1 3 C-0.98 3.99 -0.98 3.99 -3 5 C-1.35 5.33 0.3 5.66 2 6 C2 6.66 2 7.32 2 8 C0.68 8 -0.64 8 -2 8 C-2.66 9.32 -3.32 10.64 -4 12 C-4 10.35 -4 8.7 -4 7 C-4.99 7 -5.98 7 -7 7 C-7 7.99 -7 8.98 -7 10 C-8.32 9.67 -9.64 9.34 -11 9 C-7.37 6.03 -3.74 3.06 0 0 Z " fill="#3E8FE7" transform="translate(1011,448)"/>
<path d="M0 0 C0.66 0.33 1.32 0.66 2 1 C1.67 2.32 1.34 3.64 1 5 C0.34 5 -0.32 5 -1 5 C-1.0825 5.598125 -1.165 6.19625 -1.25 6.8125 C-2.20455872 9.5966296 -3.57132271 10.43311142 -6 12 C-6.66 11.67 -7.32 11.34 -8 11 C-7.34 10.34 -6.68 9.68 -6 9 C-6.66 8.34 -7.32 7.68 -8 7 C-5.36 4.69 -2.72 2.38 0 0 Z " fill="#3D91EC" transform="translate(1070,397)"/>
<path d="M0 0 C0.33 0.66 0.66 1.32 1 2 C0.01 3.485 0.01 3.485 -1 5 C-4.375 5.625 -4.375 5.625 -8 6 C-8.763125 6.20625 -9.52625 6.4125 -10.3125 6.625 C-12 7 -12 7 -14 6 C-12.41925436 5.18247697 -10.83528777 4.37118003 -9.25 3.5625 C-8.36828125 3.11003906 -7.4865625 2.65757813 -6.578125 2.19140625 C-4.35801434 1.16544602 -2.38555381 0.48491397 0 0 Z " fill="#4096F0" transform="translate(911,1143)"/>
<path d="M0 0 C1.32 0.66 2.64 1.32 4 2 C2.02327092 3.66963542 0.0437967 5.33580073 -1.9375 7 C-2.78344727 7.71542969 -2.78344727 7.71542969 -3.64648438 8.4453125 C-7.88671875 12 -7.88671875 12 -9 12 C-9 10.35 -9 8.7 -9 7 C-8.01 6.67 -7.02 6.34 -6 6 C-5.67 5.34 -5.34 4.68 -5 4 C-4.34 4 -3.68 4 -3 4 C-2.67 3.34 -2.34 2.68 -2 2 C-1.34 2 -0.68 2 0 2 C0 1.34 0 0.68 0 0 Z " fill="#4696EF" transform="translate(987,365)"/>
<path d="M0 0 C0.66 0.33 1.32 0.66 2 1 C-0.33333333 3.33333333 -2.66666667 5.66666667 -5 8 C-8.125 7.625 -8.125 7.625 -11 7 C-8.84658594 4.65082102 -6.78332063 3.17556996 -3.9375 1.75 C-3.24527344 1.39421875 -2.55304687 1.0384375 -1.83984375 0.671875 C-1.23269531 0.45015625 -0.62554688 0.2284375 0 0 Z " fill="#E4F0F9" transform="translate(528,719)"/>
<path d="M0 0 C0 0.66 0 1.32 0 2 C-1.57421875 3.3671875 -1.57421875 3.3671875 -3.6875 4.875 C-4.41324219 5.4009375 -5.13898438 5.926875 -5.88671875 6.46875 C-6.58410156 6.9740625 -7.28148437 7.479375 -8 8 C-9.67344761 9.32481269 -11.34348188 10.65407903 -13 12 C-13.33 11.01 -13.66 10.02 -14 9 C-13.34 8.34 -12.68 7.68 -12 7 C-11.34 7.33 -10.68 7.66 -10 8 C-10.33 7.01 -10.66 6.02 -11 5 C-10.34 5 -9.68 5 -9 5 C-8.360625 4.360625 -7.72125 3.72125 -7.0625 3.0625 C-4.77364863 0.77364863 -3.25938803 0 0 0 Z " fill="#3B8FE8" transform="translate(1063,509)"/>
<path d="M0 0 C0.55171875 0.25652344 1.1034375 0.51304687 1.671875 0.77734375 C-0.55299788 4.17320236 -2.76491146 5.86537551 -6.328125 7.77734375 C-7.05 8.18984375 -7.771875 8.60234375 -8.515625 9.02734375 C-9.11375 9.27484375 -9.711875 9.52234375 -10.328125 9.77734375 C-10.988125 9.44734375 -11.648125 9.11734375 -12.328125 8.77734375 C-10.75934826 7.24149935 -9.17256346 5.72403044 -7.578125 4.21484375 C-6.69640625 3.36792969 -5.8146875 2.52101563 -4.90625 1.6484375 C-2.328125 -0.22265625 -2.328125 -0.22265625 0 0 Z " fill="#3D91EC" transform="translate(1150.328125,330.22265625)"/>
<path d="M0 0 C0.66 0.33 1.32 0.66 2 1 C2 1.66 2 2.32 2 3 C2.99 3.33 3.98 3.66 5 4 C6.84499398 5.87617698 8.3683599 7.92737609 10 10 C8.02 10 6.04 10 4 10 C4 8.35 4 6.7 4 5 C3.01 4.67 2.02 4.34 1 4 C0.67 5.32 0.34 6.64 0 8 C-0.66 8 -1.32 8 -2 8 C-2 5.69 -2 3.38 -2 1 C-1.34 0.67 -0.68 0.34 0 0 Z " fill="#378CE9" transform="translate(258,1133)"/>
<path d="M0 0 C0 0.66 0 1.32 0 2 C0.66 2.33 1.32 2.66 2 3 C-3.19548425 5.20808081 -6.58264203 4.93402724 -12 4 C-8.54145481 0.54145481 -4.78095787 0 0 0 Z " fill="#4394EC" transform="translate(396,858)"/>
<path d="M0 0 C0.33 1.32 0.66 2.64 1 4 C-0.32 3.67 -1.64 3.34 -3 3 C-2.67 3.66 -2.34 4.32 -2 5 C-1.01 5.33 -0.02 5.66 1 6 C1 6.66 1 7.32 1 8 C0.071875 7.979375 -0.85625 7.95875 -1.8125 7.9375 C-5.02286011 7.84230396 -5.02286011 7.84230396 -8 9 C-8.33 7.68 -8.66 6.36 -9 5 C-6.03 3.35 -3.06 1.7 0 0 Z " fill="#4091E9" transform="translate(591,767)"/>
<path d="M0 0 C1.32 0.66 2.64 1.32 4 2 C0.7 4.64 -2.6 7.28 -6 10 C-6.66 9.01 -7.32 8.02 -8 7 C-6.68 7 -5.36 7 -4 7 C-4 5.35 -4 3.7 -4 2 C-2.25 0.875 -2.25 0.875 0 0 Z " fill="#4293EC" transform="translate(748,564)"/>
<path d="M0 0 C0.66 0.33 1.32 0.66 2 1 C-2.05489233 5.27083334 -5.96318503 8.92877136 -11 12 C-11 11.01 -11 10.02 -11 9 C-10.34 9 -9.68 9 -9 9 C-8.67 7.68 -8.34 6.36 -8 5 C-6.68 5 -5.36 5 -4 5 C-3.8453125 4.0409375 -3.8453125 4.0409375 -3.6875 3.0625 C-3.460625 2.381875 -3.23375 1.70125 -3 1 C-2.01 0.67 -1.02 0.34 0 0 Z " fill="#3F90E9" transform="translate(845,484)"/>
<path d="M0 0 C0 2.33333333 0 4.66666667 0 7 C-0.804375 7.28875 -1.60875 7.5775 -2.4375 7.875 C-5.1326468 8.73262568 -5.1326468 8.73262568 -6 11 C-6.66 11 -7.32 11 -8 11 C-6.68206814 5.33289301 -4.51290803 3.33562767 0 0 Z " fill="#3C8EEB" transform="translate(1118,356)"/>
<path d="M0 0 C1.79232337 0.30871122 3.58384321 0.62209064 5.375 0.9375 C6.87160156 1.19853516 6.87160156 1.19853516 8.3984375 1.46484375 C11 2 11 2 13 3 C13 3.66 13 4.32 13 5 C12.05125 4.979375 11.1025 4.95875 10.125 4.9375 C7.09333717 4.77448174 7.09333717 4.77448174 5 6 C4.67 5.34 4.34 4.68 4 4 C1.97536745 3.34786708 1.97536745 3.34786708 0 3 C0 2.01 0 1.02 0 0 Z " fill="#F9FAF6" transform="translate(115,1305)"/>
<path d="M0 0 C-0.66 0 -1.32 0 -2 0 C-2 0.66 -2 1.32 -2 2 C-0.68 2.33 0.64 2.66 2 3 C-1.96 4.65 -5.92 6.3 -10 8 C-10 7.01 -10 6.02 -10 5 C-8.02 4.01 -6.04 3.02 -4 2 C-4.66 2 -5.32 2 -6 2 C-6 1.34 -6 0.68 -6 0 C-3 -1 -3 -1 0 0 Z " fill="#3789E3" transform="translate(1254,1297)"/>
<path d="M0 0 C4.30764815 1.56641751 8.06171464 3.68336156 12 6 C8.91190305 7.76462683 7.76687864 8 4 8 C3.896875 7.38125 3.79375 6.7625 3.6875 6.125 C3.12474627 3.63473516 3.12474627 3.63473516 0 2 C0 1.34 0 0.68 0 0 Z " fill="#3C90E8" transform="translate(793,1143)"/>
<path d="M0 0 C0.66 0.33 1.32 0.66 2 1 C1.67 1.66 1.34 2.32 1 3 C0.34 3 -0.32 3 -1 3 C-1.33 3.66 -1.66 4.32 -2 5 C-1.34 5.33 -0.68 5.66 0 6 C-3 7 -3 7 -6 6 C-6.33 6.99 -6.66 7.98 -7 9 C-10.0625 10.1875 -10.0625 10.1875 -13 11 C-9.0299782 6.78185183 -4.69159716 3.38772897 0 0 Z " fill="#4793E8" transform="translate(786,634)"/>
<path d="M0 0 C0 2 0 2 -1.5 3.625 C-1.995 4.07875 -2.49 4.5325 -3 5 C-1.68 4.67 -0.36 4.34 1 4 C0.67 4.99 0.34 5.98 0 7 C-3.7684742 7.65538682 -7.18488572 8 -11 8 C-9.54712339 6.66072279 -8.08752741 5.32873153 -6.625 4 C-5.81289063 3.2575 -5.00078125 2.515 -4.1640625 1.75 C-2 0 -2 0 0 0 Z " fill="#4292E8" transform="translate(868,568)"/>
<path d="M0 0 C0 3.66842255 -0.79029126 5.10451959 -3 8 C-5.4375 8.625 -5.4375 8.625 -8 9 C-10.26454073 10.46771271 -10.26454073 10.46771271 -12 12 C-12.66 11.67 -13.32 11.34 -14 11 C-9.38 7.37 -4.76 3.74 0 0 Z " fill="#DCEEFA" transform="translate(890,450)"/>
<path d="M0 0 C0.33 0.66 0.66 1.32 1 2 C1.66 2 2.32 2 3 2 C3 2.66 3 3.32 3 4 C-2.08086796 4.84681133 -6.84828377 5.09038099 -12 5 C-9.9330412 2.9330412 -8.69369158 2.35542451 -6 1.375 C-5.29875 1.11460937 -4.5975 0.85421875 -3.875 0.5859375 C-2 0 -2 0 0 0 Z " fill="#4595E8" transform="translate(436,842)"/>
<path d="M0 0 C-0.66 1.32 -1.32 2.64 -2 4 C-2.66 4 -3.32 4 -4 4 C-4 4.66 -4 5.32 -4 6 C-5.32 6 -6.64 6 -8 6 C-8 4.35 -8 2.7 -8 1 C-2.25 -1.125 -2.25 -1.125 0 0 Z " fill="#ECF5FA" transform="translate(184,841)"/>
<path d="M0 0 C0.33 1.65 0.66 3.3 1 5 C0.484375 5.12375 -0.03125 5.2475 -0.5625 5.375 C-3.72702351 6.18641628 -6.86124985 7.0945913 -10 8 C-9.34 7.01 -8.68 6.02 -8 5 C-7.34 5 -6.68 5 -6 5 C-6 4.34 -6 3.68 -6 3 C-2.53846154 0 -2.53846154 0 0 0 Z " fill="#DFEFF9" transform="translate(804,707)"/>
<path d="M0 0 C0.66 0.33 1.32 0.66 2 1 C0.6875 3.5 0.6875 3.5 -1 6 C-1.99 6 -2.98 6 -4 6 C-4 6.66 -4 7.32 -4 8 C-5.96466413 9.06775224 -7.96855359 10.06553465 -10 11 C-10.66 10.67 -11.32 10.34 -12 10 C-8.04 6.7 -4.08 3.4 0 0 Z " fill="#DFF0FB" transform="translate(710,599)"/>
<path d="M0 0 C2.475 0.99 2.475 0.99 5 2 C1.375 6.875 1.375 6.875 -2 8 C-2 7.01 -2 6.02 -2 5 C-2.66 4.67 -3.32 4.34 -4 4 C-2.66666667 2.66666667 -1.33333333 1.33333333 0 0 Z " fill="#EFF8FC" transform="translate(1188,288)"/>
<path d="M0 0 C0.66 0 1.32 0 2 0 C2 0.66 2 1.32 2 2 C3.32 2 4.64 2 6 2 C5.67 4.31 5.34 6.62 5 9 C5.66 9.33 6.32 9.66 7 10 C6.34 11.32 5.68 12.64 5 14 C4.35089846 12.41800369 3.70585306 10.83434276 3.0625 9.25 C2.70285156 8.36828125 2.34320312 7.4865625 1.97265625 6.578125 C1.14643424 4.38813896 0.50630057 2.28101729 0 0 Z " fill="#F3FAFB" transform="translate(1344,110)"/>
<path d="M0 0 C0 0.66 0 1.32 0 2 C-0.639375 2.474375 -1.27875 2.94875 -1.9375 3.4375 C-4.28372963 4.9091365 -4.28372963 4.9091365 -5 8 C-7.31 7.67 -9.62 7.34 -12 7 C-2.9 0 -2.9 0 0 0 Z " fill="#DEEDF8" transform="translate(578,692)"/>
<path d="M0 0 C0.33 1.32 0.66 2.64 1 4 C0.360625 4.28875 -0.27875 4.5775 -0.9375 4.875 C-3.15206079 5.82823451 -3.15206079 5.82823451 -4 8 C-3.34 8.33 -2.68 8.66 -2 9 C-2.99 9.33 -3.98 9.66 -5 10 C-6.32 9.01 -7.64 8.02 -9 7 C-6.03 4.69 -3.06 2.38 0 0 Z " fill="#3A8EE5" transform="translate(751,661)"/>
<path d="M0 0 C0 1.33333333 0 2.66666667 0 4 C-4.82360189 4.19294408 -8.49646738 3.75747614 -13 2 C-13 1.67 -13 1.34 -13 1 C-8.59085217 -0.10228696 -4.51617599 -0.07654536 0 0 Z " fill="#EDF5F7" transform="translate(1120,498)"/>
<path d="M0 0 C0.66 0.33 1.32 0.66 2 1 C1.01 2.485 1.01 2.485 0 4 C0.99 4 1.98 4 3 4 C3 4.66 3 5.32 3 6 C-2.75 5.125 -2.75 5.125 -5 4 C-5 4.66 -5 5.32 -5 6 C-6.32 5.34 -7.64 4.68 -9 4 C-7.54618103 3.30300448 -6.08677047 2.61766134 -4.625 1.9375 C-3.40683594 1.36322266 -3.40683594 1.36322266 -2.1640625 0.77734375 C-1.44992187 0.52082031 -0.73578125 0.26429688 0 0 Z " fill="#E6F4FD" transform="translate(1157,232)"/>
<path d="M0 0 C2.31 0 4.62 0 7 0 C7.66 2.31 8.32 4.62 9 7 C6 7 6 7 3.375 4.625 C1 2 1 2 0 0 Z " fill="#4091ED" transform="translate(647,869)"/>
<path d="M0 0 C0.33 0.66 0.66 1.32 1 2 C0.67 2.99 0.34 3.98 0 5 C-1.66666667 5.66666667 -3.33333333 6.33333333 -5 7 C-5.33 7.99 -5.66 8.98 -6 10 C-7.32 9.67 -8.64 9.34 -10 9 C-6.7 6.03 -3.4 3.06 0 0 Z " fill="#4794E9" transform="translate(919,523)"/>
<path d="M0 0 C1.43088528 2.86177057 0.59991697 4.93375773 0 8 C-0.99 7.01 -1.98 6.02 -3 5 C-3 5.99 -3 6.98 -3 8 C-5.31 8.33 -7.62 8.66 -10 9 C-6.83047153 5.73991357 -3.60062011 2.77762123 0 0 Z " fill="#4091E9" transform="translate(1087,383)"/>
<path d="M0 0 C0.33 0.66 0.66 1.32 1 2 C0.01 2.495 0.01 2.495 -1 3 C-0.01 3.66 0.98 4.32 2 5 C0.4221875 5.433125 0.4221875 5.433125 -1.1875 5.875 C-4.87060901 6.87865345 -4.87060901 6.87865345 -7.75 8.1875 C-10 9 -10 9 -13 8 C-12.31292969 7.59007812 -11.62585938 7.18015625 -10.91796875 6.7578125 C-10.01691406 6.21898437 -9.11585938 5.68015625 -8.1875 5.125 C-7.29417969 4.59132813 -6.40085937 4.05765625 -5.48046875 3.5078125 C-3.62705276 2.38116908 -1.80470083 1.20313389 0 0 Z " fill="#4191E5" transform="translate(385,1139)"/>
<path d="M0 0 C0 0.66 0 1.32 0 2 C-5.39460953 4.27141454 -10.26157749 4.20413361 -16 4 C-12.99173442 2.33495998 -10.24829788 1.50938139 -6.875 0.875 C-6.00617188 0.70742188 -5.13734375 0.53984375 -4.2421875 0.3671875 C-2 0 -2 0 0 0 Z " fill="#519BE9" transform="translate(262,899)"/>
<path d="M0 0 C0.66 0.33 1.32 0.66 2 1 C2 1.33 2 1.66 2 2 C2.99 2.33 3.98 2.66 5 3 C3.35 3.33 1.7 3.66 0 4 C-0.33 4.99 -0.66 5.98 -1 7 C-3.97 6.505 -3.97 6.505 -7 6 C-4.83312509 3.72478134 -2.54379491 1.84205838 0 0 Z " fill="#4697EE" transform="translate(690,705)"/>
<path d="M0 0 C0 0.33 0 0.66 0 1 C-2.08201528 1.50546036 -4.16567067 2.00416835 -6.25 2.5 C-7.41015625 2.7784375 -8.5703125 3.056875 -9.765625 3.34375 C-13 4 -13 4 -17 4 C-17 3.34 -17 2.68 -17 2 C-10.99085195 -1.26584133 -6.67522647 -1.11477625 0 0 Z " fill="#4291E7" transform="translate(829,698)"/>
<path d="M0 0 C0.66 0.33 1.32 0.66 2 1 C1.67 2.65 1.34 4.3 1 6 C-0.65 6 -2.3 6 -4 6 C-4.33 6.66 -4.66 7.32 -5 8 C-6.32 7.67 -7.64 7.34 -9 7 C-6.03 4.69 -3.06 2.38 0 0 Z " fill="#4495ED" transform="translate(739,670)"/>
<path d="M0 0 C0.33 0.66 0.66 1.32 1 2 C-0.32 3.32 -1.64 4.64 -3 6 C-2.34 6 -1.68 6 -1 6 C-1.33 6.99 -1.66 7.98 -2 9 C-2.99 8.67 -3.98 8.34 -5 8 C-8.15020361 8.88319294 -8.15020361 8.88319294 -11 10 C-7.50640535 6.40365256 -3.88901869 3.16548033 0 0 Z " fill="#519AEB" transform="translate(937,508)"/>
<path d="M0 0 C2.31 0 4.62 0 7 0 C5.33333333 1.66666667 3.66666667 3.33333333 2 5 C1.278125 5.763125 0.55625 6.52625 -0.1875 7.3125 C-2 9 -2 9 -4 9 C-4 8.34 -4 7.68 -4 7 C-3.34 7 -2.68 7 -2 7 C-2 6.01 -2 5.02 -2 4 C-0.68 3.67 0.64 3.34 2 3 C2 2.34 2 1.68 2 1 C1.34 0.67 0.68 0.34 0 0 Z " fill="#E5F5FB" transform="translate(1130,340)"/>
<path d="M0 0 C-0.99 1.485 -0.99 1.485 -2 3 C-4.97 2.505 -4.97 2.505 -8 2 C-8 2.66 -8 3.32 -8 4 C-11.3 3.67 -14.6 3.34 -18 3 C-18 2.67 -18 2.34 -18 2 C-15.37638987 1.47109454 -12.75151775 0.95157912 -10.125 0.4375 C-9.37863281 0.28603516 -8.63226562 0.13457031 -7.86328125 -0.02148438 C-2.2265625 -1.11328125 -2.2265625 -1.11328125 0 0 Z " fill="#4693EC" transform="translate(890,1153)"/>
<path d="M0 0 C0.33 0 0.66 0 1 0 C1 2.64 1 5.28 1 8 C-0.175625 7.9690625 -0.175625 7.9690625 -1.375 7.9375 C-3.98114961 7.81315937 -3.98114961 7.81315937 -6 9 C-4.47300326 5.56425733 -2.44973747 2.84485642 0 0 Z " fill="#4795EA" transform="translate(659,1127)"/>
<path d="M0 0 C1.65 0 3.3 0 5 0 C4.21572648 1.64936913 3.42234741 3.29441127 2.625 4.9375 C2.18414063 5.85402344 1.74328125 6.77054688 1.2890625 7.71484375 C0 10 0 10 -2 11 C-2 9.02 -2 7.04 -2 5 C-1.34 4.67 -0.68 4.34 0 4 C0 2.68 0 1.36 0 0 Z " fill="#EAF4FB" transform="translate(923,1120)"/>
<path d="M0 0 C0.33 0 0.66 0 1 0 C1.1953125 6.0546875 1.1953125 6.0546875 1 8 C0.34 8.66 -0.32 9.32 -1 10 C-1 9.34 -1 8.68 -1 8 C-1.99 8.33 -2.98 8.66 -4 9 C-4 7.02 -4 5.04 -4 3 C-3.01 3.495 -3.01 3.495 -2 4 C-1.34 2.68 -0.68 1.36 0 0 Z " fill="#F0F9FA" transform="translate(934,1096)"/>
<path d="M0 0 C1.32 0 2.64 0 4 0 C4 0.99 4 1.98 4 3 C4.66 2.34 5.32 1.68 6 1 C8.125 1.375 8.125 1.375 10 2 C7.77174356 4.22825644 6.34238372 4.69239369 3.375 5.625 C2.55773437 5.88539063 1.74046875 6.14578125 0.8984375 6.4140625 C0.27195312 6.60742188 -0.35453125 6.80078125 -1 7 C-1.66 6.34 -2.32 5.68 -3 5 C-1.35 4.67 0.3 4.34 2 4 C2 3.01 2 2.02 2 1 C1.34 0.67 0.68 0.34 0 0 Z " fill="#3F91E7" transform="translate(404,769)"/>
<path d="M0 0 C1.32 0.99 2.64 1.98 4 3 C-1.625 8 -1.625 8 -5 8 C-4.1875 5.5625 -4.1875 5.5625 -3 3 C-2.01 2.67 -1.02 2.34 0 2 C0 1.34 0 0.68 0 0 Z " fill="#DFEDF9" transform="translate(812,608)"/>
<path d="M0 0 C0.99 0.33 1.98 0.66 3 1 C1.6056126 3.78877479 -0.56195086 5.09713238 -3 7 C-3.66 7.66 -4.32 8.32 -5 9 C-5.99 8.34 -6.98 7.68 -8 7 C-6.74057614 5.80040625 -5.46704714 4.61560557 -4.1875 3.4375 C-3.12595703 2.44556641 -3.12595703 2.44556641 -2.04296875 1.43359375 C-1.36878906 0.96050781 -0.69460938 0.48742187 0 0 Z " fill="#3D91EE" transform="translate(1020,440)"/>
<path d="M0 0 C1.98 0 3.96 0 6 0 C3.35039045 3.63094642 0.98175544 5.89851796 -3 8 C-3.33 6.68 -3.66 5.36 -4 4 C-2.68 4 -1.36 4 0 4 C0 2.68 0 1.36 0 0 Z " fill="#4093EA" transform="translate(948,396)"/>
<path d="M0 0 C0.66 0.33 1.32 0.66 2 1 C0 9.57142857 0 9.57142857 -2 13 C-2.66 13 -3.32 13 -4 13 C-3.40895235 8.15340923 -2.02055843 4.39251833 0 0 Z " fill="#F7FBF5" transform="translate(21,91)"/>
<path d="M0 0 C0.66 0 1.32 0 2 0 C2.99 1.98 3.98 3.96 5 6 C5.66 6 6.32 6 7 6 C6.67 7.65 6.34 9.3 6 11 C5.34 11 4.68 11 4 11 C3.32880451 9.5437455 2.66318193 8.08492133 2 6.625 C1.62875 5.81289062 1.2575 5.00078125 0.875 4.1640625 C0 2 0 2 0 0 Z " fill="#3488E4" transform="translate(16,1204)"/>
<path d="M0 0 C2.64 0.33 5.28 0.66 8 1 C7.01 1.495 7.01 1.495 6 2 C6 2.66 6 3.32 6 4 C6.66 4.33 7.32 4.66 8 5 C5.36 5 2.72 5 0 5 C0 3.35 0 1.7 0 0 Z " fill="#E8F4F9" transform="translate(824,1152)"/>
<path d="M0 0 C0.99 1.485 0.99 1.485 2 3 C2.99 2.01 3.98 1.02 5 0 C5 2.31 5 4.62 5 7 C4.01 7.33 3.02 7.66 2 8 C1.67 8.66 1.34 9.32 1 10 C0.67 6.7 0.34 3.4 0 0 Z " fill="#E7F5FC" transform="translate(768,1096)"/>
<path d="M0 0 C0.33 0.99 0.66 1.98 1 3 C1.66 3 2.32 3 3 3 C3.33 2.01 3.66 1.02 4 0 C4 3.96 4 7.92 4 12 C3.01 11.67 2.02 11.34 1 11 C0.67 7.37 0.34 3.74 0 0 Z " fill="#4394E9" transform="translate(936,752)"/>
<path d="M0 0 C0.66 0.33 1.32 0.66 2 1 C1.67 1.99 1.34 2.98 1 4 C1.99 3.67 2.98 3.34 4 3 C4 3.66 4 4.32 4 5 C2.54263913 5.19491452 1.08405407 5.38069358 -0.375 5.5625 C-1.18710937 5.66691406 -1.99921875 5.77132812 -2.8359375 5.87890625 C-5 6 -5 6 -7 5 C-4.69 3.35 -2.38 1.7 0 0 Z " fill="#4698ED" transform="translate(666,721)"/>
<path d="M0 0 C2.31 0 4.62 0 7 0 C4.31158141 2.25245881 2.35358125 3.88213958 -1 5 C-1 5.66 -1 6.32 -1 7 C-1.66 7 -2.32 7 -3 7 C-3 5.35 -3 3.7 -3 2 C-1.68 2.33 -0.36 2.66 1 3 C0.67 2.01 0.34 1.02 0 0 Z " fill="#4596E9" transform="translate(667,628)"/>
<path d="M0 0 C3.3 0 6.6 0 10 0 C10 0.66 10 1.32 10 2 C11.65 2 13.3 2 15 2 C15 2.33 15 2.66 15 3 C12.36 3.33 9.72 3.66 7 4 C7 3.34 7 2.68 7 2 C4.69 1.67 2.38 1.34 0 1 C0 0.67 0 0.34 0 0 Z " fill="#3E92E8" transform="translate(251,818)"/>
<path d="M0 0 C0.66 0 1.32 0 2 0 C2.33 1.32 2.66 2.64 3 4 C3.66 4 4.32 4 5 4 C3.70700306 6.88437779 2.34058637 8.87219421 0 11 C-0.99552499 7.90281114 -0.89921243 6.09728725 0 3 C0 2.01 0 1.02 0 0 Z " fill="#368FE8" transform="translate(1042,520)"/>
<path d="M0 0 C2.97 0.495 2.97 0.495 6 1 C6 1.66 6 2.32 6 3 C6.598125 2.649375 7.19625 2.29875 7.8125 1.9375 C10 1 10 1 13 2 C12.01 2.33 11.02 2.66 10 3 C9.26676204 5.01508358 9.26676204 5.01508358 9 7 C7.4972763 6.02501855 5.99788037 5.04490611 4.5 4.0625 C3.6646875 3.51722656 2.829375 2.97195313 1.96875 2.41015625 C1.3190625 1.94480469 0.669375 1.47945313 0 1 C0 0.67 0 0.34 0 0 Z " fill="#3F8FE8" transform="translate(1162,504)"/>
<path d="M0 0 C0 0.66 0 1.32 0 2 C1.65 2 3.3 2 5 2 C5.33 2.99 5.66 3.98 6 5 C5.40832031 4.86722656 4.81664062 4.73445313 4.20703125 4.59765625 C0.14553475 3.68994822 -3.91374171 2.7908887 -8 2 C-4.91190305 0.23537317 -3.76687864 0 0 0 Z " fill="#4E99EE" transform="translate(1152,497)"/>
<path d="M0 0 C1.65 0.33 3.3 0.66 5 1 C0.375 5.875 0.375 5.875 -3 7 C-2.38722388 4.03824877 -1.74627478 2.61941217 0 0 Z " fill="#EBF6F9" transform="translate(971,476)"/>
<path d="M0 0 C1.32 0 2.64 0 4 0 C4.33 0.99 4.66 1.98 5 3 C2.69 4.32 0.38 5.64 -2 7 C-1.125 1.125 -1.125 1.125 0 0 Z " fill="#3E93ED" transform="translate(1140,236)"/>
<path d="M0 0 C0.99 0 1.98 0 3 0 C3.53190541 1.43344 4.05015258 2.87195367 4.5625 4.3125 C4.85253906 5.11300781 5.14257812 5.91351563 5.44140625 6.73828125 C6 9 6 9 5 12 C5 11.34 5 10.68 5 10 C4.34 10 3.68 10 3 10 C2.49818809 8.52144705 1.99859924 7.04213942 1.5 5.5625 C1.2215625 4.73878906 0.943125 3.91507812 0.65625 3.06640625 C0 1 0 1 0 0 Z " fill="#F9F9F4" transform="translate(1337,91)"/>
<path d="M0 0 C0.99 0.33 1.98 0.66 3 1 C3 1.66 3 2.32 3 3 C-3.4 6.07692308 -3.4 6.07692308 -6.4375 5.6875 C-6.953125 5.460625 -7.46875 5.23375 -8 5 C-7.67 4.34 -7.34 3.68 -7 3 C-5.35 3 -3.7 3 -2 3 C-2 2.34 -2 1.68 -2 1 C-1.34 0.67 -0.68 0.34 0 0 Z " fill="#F5FBF8" transform="translate(114,8)"/>
<path d="M0 0 C-0.99 0.66 -1.98 1.32 -3 2 C-2.01 2.33 -1.02 2.66 0 3 C0 3.66 0 4.32 0 5 C-1.46067199 4.54917531 -2.91848032 4.08906463 -4.375 3.625 C-5.18710938 3.36976562 -5.99921875 3.11453125 -6.8359375 2.8515625 C-9 2 -9 2 -11 0 C-6.94952424 -1.35015859 -4.2079832 -0.62084998 0 0 Z " fill="#3489E1" transform="translate(116,1299)"/>
<path d="M0 0 C3.63 0 7.26 0 11 0 C8.12656563 1.91562291 7.22496459 2.29210899 3.98828125 2.6328125 C3.23095703 2.71660156 2.47363281 2.80039063 1.69335938 2.88671875 C0.90767578 2.96535156 0.12199219 3.04398438 -0.6875 3.125 C-1.48478516 3.21136719 -2.28207031 3.29773437 -3.10351562 3.38671875 C-5.06823326 3.59848472 -7.03402796 3.80021473 -9 4 C-5.81237635 1.87491756 -3.73487777 1.4979837 0 1 C0 0.67 0 0.34 0 0 Z " fill="#DEEEF9" transform="translate(877,1152)"/>
<path d="M0 0 C1.48117801 0.28127421 2.95993249 0.57533732 4.4375 0.875 C5.67306641 1.11863281 5.67306641 1.11863281 6.93359375 1.3671875 C7.61550781 1.57601563 8.29742187 1.78484375 9 2 C9.33 2.66 9.66 3.32 10 4 C8.35 4.33 6.7 4.66 5 5 C5 4.34 5 3.68 5 3 C3.02 3.66 1.04 4.32 -1 5 C-0.67 3.35 -0.34 1.7 0 0 Z " fill="#4A98EA" transform="translate(281,1151)"/>
<path d="M0 0 C1.32 0 2.64 0 4 0 C4 0.66 4 1.32 4 2 C4.66 2.33 5.32 2.66 6 3 C4.02 3.99 2.04 4.98 0 6 C-0.38218767 4.34385343 -0.71395102 2.67542976 -1 1 C-0.67 0.67 -0.34 0.34 0 0 Z " fill="#EFF7FA" transform="translate(577,769)"/>
<path d="M0 0 C0.99 0 1.98 0 3 0 C2.71758359 1.46015291 2.42373386 2.91809793 2.125 4.375 C1.96257812 5.18710937 1.80015625 5.99921875 1.6328125 6.8359375 C1 9 1 9 -1 11 C-1.02688151 9.35425434 -1.04634123 7.70838587 -1.0625 6.0625 C-1.07410156 5.14597656 -1.08570313 4.22945312 -1.09765625 3.28515625 C-1 1 -1 1 0 0 Z " fill="#4491E5" transform="translate(1034,541)"/>
<path d="M0 0 C0.86625 0.37125 0.86625 0.37125 1.75 0.75 C0.375 2.25 0.375 2.25 -1.25 3.75 C-1.91 3.75 -2.57 3.75 -3.25 3.75 C-3.25 4.41 -3.25 5.07 -3.25 5.75 C-5.23 6.74 -5.23 6.74 -7.25 7.75 C-6.66524269 3.65669884 -4.62230386 -0.51358932 0 0 Z " fill="#4594ED" transform="translate(859.25,473.25)"/>
<path d="M0 0 C0.33 0.66 0.66 1.32 1 2 C0.34 2 -0.32 2 -1 2 C-1.12375 2.61875 -1.2475 3.2375 -1.375 3.875 C-2 6 -2 6 -4 8 C-6.625 8.125 -6.625 8.125 -9 8 C-6.14723863 5.06799526 -3.34920216 2.35684596 0 0 Z " fill="#E6F3FB" transform="translate(1092,282)"/>
<path d="M0 0 C0.99 0 1.98 0 3 0 C6 3.33333333 6 3.33333333 6 6 C4.35 6.33 2.7 6.66 1 7 C0.67 4.69 0.34 2.38 0 0 Z " fill="#ECF5FA" transform="translate(656,882)"/>
<path d="M0 0 C2.31 0 4.62 0 7 0 C4.14723863 2.93200474 1.34920216 5.64315404 -2 8 C-2.33 7.01 -2.66 6.02 -3 5 C-2.01 5 -1.02 5 0 5 C0 4.34 0 3.68 0 3 C0.66 3 1.32 3 2 3 C2 2.34 2 1.68 2 1 C1.34 0.67 0.68 0.34 0 0 Z " fill="#E2F5FB" transform="translate(874,556)"/>
<path d="M0 0 C1.32 0.66 2.64 1.32 4 2 C2.68 2.33 1.36 2.66 0 3 C-0.33 4.32 -0.66 5.64 -1 7 C-4 7 -4 7 -6 6 C-4.02 4.02 -2.04 2.04 0 0 Z " fill="#DEEFF8" transform="translate(846,485)"/>
<path d="M0 0 C0.66 0 1.32 0 2 0 C1.34 1.98 0.68 3.96 0 6 C-1.98 6 -3.96 6 -6 6 C-4 4 -2 2 0 0 Z " fill="#398DE9" transform="translate(1094,377)"/>
<path d="M0 0 C0 0.66 0 1.32 0 2 C-1.65532623 3.01866229 -3.32260138 4.01810813 -5 5 C-5.33 5.66 -5.66 6.32 -6 7 C-9.0625 7.625 -9.0625 7.625 -12 8 C-4.43243243 0 -4.43243243 0 0 0 Z " fill="#DAECFC" transform="translate(278,969)"/>
<path d="M0 0 C0.33 0 0.66 0 1 0 C3.11161731 9.41002278 3.11161731 9.41002278 4 14 C2.68 13.67 1.36 13.34 0 13 C-0.5625 11.0625 -0.5625 11.0625 -1 9 C-0.67 8.67 -0.34 8.34 0 8 C0.07148199 6.64756083 0.08399454 5.29165633 0.0625 3.9375 C0.041875 2.638125 0.02125 1.33875 0 0 Z " fill="#549BF0" transform="translate(154,877)"/>
<path d="M0 0 C-4.455 1.485 -4.455 1.485 -9 3 C-9 3.66 -9 4.32 -9 5 C-11.97 4.505 -11.97 4.505 -15 4 C-4.93506494 -1.23376623 -4.93506494 -1.23376623 0 0 Z " fill="#D9EFFB" transform="translate(559,859)"/>
<path d="M0 0 C1.2065625 0.0309375 1.2065625 0.0309375 2.4375 0.0625 C2.7675 1.0525 3.0975 2.0425 3.4375 3.0625 C1.4575 4.3825 -0.5225 5.7025 -2.5625 7.0625 C-2.94383299 5.0710944 -3.27575582 3.06970923 -3.5625 1.0625 C-2.5625 0.0625 -2.5625 0.0625 0 0 Z " fill="#EBF4FB" transform="translate(750.5625,656.9375)"/>
<path d="M0 0 C0.66 0.66 1.32 1.32 2 2 C-0.97 4.475 -0.97 4.475 -4 7 C-4.66 5.68 -5.32 4.36 -6 3 C-4.02 2.01 -2.04 1.02 0 0 Z " fill="#E9F6F8" transform="translate(791,627)"/>
<path d="M0 0 C0.99 0.33 1.98 0.66 3 1 C2.67 5.62 2.34 10.24 2 15 C1.67 15 1.34 15 1 15 C0.67 10.05 0.34 5.1 0 0 Z " fill="#4090ED" transform="translate(1028,561)"/>
<path d="M0 0 C0.99 0.66 1.98 1.32 3 2 C0.36 4.31 -2.28 6.62 -5 9 C-5.66 8.67 -6.32 8.34 -7 8 C-7 7.34 -7 6.68 -7 6 C-6.01 6 -5.02 6 -4 6 C-4 5.34 -4 4.68 -4 4 C-3.34 4 -2.68 4 -2 4 C-1.34 2.68 -0.68 1.36 0 0 Z " fill="#4595E9" transform="translate(889,447)"/>
<path d="M0 0 C0.66 0.33 1.32 0.66 2 1 C0.47875703 4.04248594 -0.44454636 5.70838684 -3.5 7.3125 C-6 8 -6 8 -9 8 C-7.625 6.5 -7.625 6.5 -6 5 C-5.34 5 -4.68 5 -4 5 C-4 4.34 -4 3.68 -4 3 C-2 1.375 -2 1.375 0 0 Z " fill="#D0E5F9" transform="translate(1116,261)"/>
<path d="M0 0 C0.33 0.66 0.66 1.32 1 2 C1.99 1.67 2.98 1.34 4 1 C4 2.98 4 4.96 4 7 C2.68 7.33 1.36 7.66 0 8 C0.99 6.68 1.98 5.36 3 4 C1.35 4.66 -0.3 5.32 -2 6 C-1.34 4.02 -0.68 2.04 0 0 Z " fill="#3488E4" transform="translate(27,86)"/>
<path d="M0 0 C2.32490278 3.63266059 2.39259107 6.76001646 2 11 C1.01 11.66 0.02 12.32 -1 13 C-1.0272415 11.58344207 -1.04650467 10.16672955 -1.0625 8.75 C-1.07410156 7.96109375 -1.08570313 7.1721875 -1.09765625 6.359375 C-1.00385306 4.09308998 -0.63241063 2.1711105 0 0 Z " fill="#E9F7FD" transform="translate(155,864)"/>
<path d="M0 0 C1.625 2 1.625 2 3 4 C0.69 4.33 -1.62 4.66 -4 5 C-4.66 3.68 -5.32 2.36 -6 1 C-3.92446352 0.4465236 -2.15634036 0 0 0 Z " fill="#3B8FE9" transform="translate(230,825)"/>
<path d="M0 0 C-0.66 1.98 -1.32 3.96 -2 6 C-2.99 5.67 -3.98 5.34 -5 5 C-4.34 5 -3.68 5 -3 5 C-3 4.34 -3 3.68 -3 3 C-4.32 3.99 -5.64 4.98 -7 6 C-7.66 5.34 -8.32 4.68 -9 4 C-2.25 0 -2.25 0 0 0 Z " fill="#4A9AEF" transform="translate(622,750)"/>
<path d="M0 0 C0.99 0 1.98 0 3 0 C3 0.66 3 1.32 3 2 C3.99 2.33 4.98 2.66 6 3 C1.545 4.485 1.545 4.485 -3 6 C-3.33 5.34 -3.66 4.68 -4 4 C-3.34 3.34 -2.68 2.68 -2 2 C-1.01 2.33 -0.02 2.66 1 3 C0.67 2.01 0.34 1.02 0 0 Z " fill="#3E91EB" transform="translate(461,747)"/>
<path d="M0 0 C-1.50663783 3.01327566 -4.03166411 3.61056618 -7 5 C-7.33 3.35 -7.66 1.7 -8 0 C-4.71023192 -1.09658936 -3.28696233 -0.79953138 0 0 Z " fill="#4598EC" transform="translate(649,646)"/>
<path d="M0 0 C2.9375 0.75 2.9375 0.75 6 2 C6.875 4.125 6.875 4.125 7 6 C6.01 6.66 5.02 7.32 4 8 C2.68 5.36 1.36 2.72 0 0 Z " fill="#3F93EB" transform="translate(1192,535)"/>
<path d="M0 0 C2.64 0.66 5.28 1.32 8 2 C6.35 3.65 4.7 5.3 3 7 C1.79371992 4.66785852 0.8345262 2.50357861 0 0 Z " fill="#3F92EB" transform="translate(784,530)"/>
<path d="M0 0 C-0.33 0.99 -0.66 1.98 -1 3 C-3.31 3.33 -5.62 3.66 -8 4 C-5.97675095 -0.48005146 -4.79569304 -1.43870791 0 0 Z " fill="#E6F3F8" transform="translate(1126,257)"/>
<path d="M0 0 C1.4540625 0.0309375 1.4540625 0.0309375 2.9375 0.0625 C2.6075 1.7125 2.2775 3.3625 1.9375 5.0625 C0.9475 5.3925 -0.0425 5.7225 -1.0625 6.0625 C-2.0525 4.4125 -3.0425 2.7625 -4.0625 1.0625 C-3.0625 0.0625 -3.0625 0.0625 0 0 Z " fill="#F5FBF9" transform="translate(1316.0625,55.9375)"/>
<path d="M0 0 C0.99 0.66 1.98 1.32 3 2 C-1.95 4.97 -1.95 4.97 -7 8 C-7.66 7.34 -8.32 6.68 -9 6 C-7.35 5.67 -5.7 5.34 -4 5 C-4 4.34 -4 3.68 -4 3 C-2 1.375 -2 1.375 0 0 Z " fill="#3D8BE5" transform="translate(1278,1284)"/>
<path d="M0 0 C1.76462683 3.08809695 2 4.23312136 2 8 C0.35 8 -1.3 8 -3 8 C-2.01 5.36 -1.02 2.72 0 0 Z " fill="#4495EB" transform="translate(402,1112)"/>
<path d="M0 0 C1.65 0 3.3 0 5 0 C2.03 3.96 2.03 3.96 -1 8 C-2.2077558 4.37673261 -1.54311128 3.35853631 0 0 Z " fill="#3D90EA" transform="translate(522,872)"/>
<path d="M0 0 C1.32 0 2.64 0 4 0 C4.33 0.99 4.66 1.98 5 3 C3.02 3.66 1.04 4.32 -1 5 C-1.33 4.34 -1.66 3.68 -2 3 C-1.34 2.01 -0.68 1.02 0 0 Z " fill="#3D91ED" transform="translate(540,708)"/>
<path d="M0 0 C0.66 0.33 1.32 0.66 2 1 C1.25 3.4375 1.25 3.4375 0 6 C-2.125 6.8125 -2.125 6.8125 -4 7 C-4 6.34 -4 5.68 -4 5 C-4.66 4.67 -5.32 4.34 -6 4 C-4.02 2.68 -2.04 1.36 0 0 Z " fill="#E6F4F9" transform="translate(672,629)"/>
<path d="M0 0 C1.65 0.33 3.3 0.66 5 1 C2.42215154 3.64752004 0.08351902 5.94432065 -3 8 C-3 6.68 -3 5.36 -3 4 C-2.34 3.67 -1.68 3.34 -1 3 C-0.67 2.01 -0.34 1.02 0 0 Z " fill="#4492EF" transform="translate(795,524)"/>
<path d="M0 0 C0.66 0.33 1.32 0.66 2 1 C0.84826645 3.46800047 -0.04783565 5.04783565 -2 7 C-2 6.34 -2 5.68 -2 5 C-3.65 5.66 -5.3 6.32 -7 7 C-4.66666667 4.66666667 -2.33333333 2.33333333 0 0 Z " fill="#E0EEF7" transform="translate(830,499)"/>
<path d="M0 0 C0 3 0 3 -1 6 C-1.99 6 -2.98 6 -4 6 C-4 6.66 -4 7.32 -4 8 C-5.32 8 -6.64 8 -8 8 C-8 7.34 -8 6.68 -8 6 C-6.25 4.4921875 -6.25 4.4921875 -4 2.875 C-3.2575 2.33617187 -2.515 1.79734375 -1.75 1.2421875 C-1.1725 0.83226562 -0.595 0.42234375 0 0 Z " fill="#E2F1FB" transform="translate(902,440)"/>
<path d="M0 0 C1.98 0.66 3.96 1.32 6 2 C5.67 2.66 5.34 3.32 5 4 C2 4 -1 4 -4 4 C-2.68 2.68 -1.36 1.36 0 0 Z " fill="#E3F3F8" transform="translate(930,416)"/>
<path d="M0 0 C0 0.99 0 1.98 0 3 C-0.66 3 -1.32 3 -2 3 C-1.67 3.99 -1.34 4.98 -1 6 C-1.99 6.33 -2.98 6.66 -4 7 C-4 6.34 -4 5.68 -4 5 C-5.32 5.33 -6.64 5.66 -8 6 C-5.51047079 3.33264727 -3.36591866 1.44253657 0 0 Z " fill="#509BE9" transform="translate(630,744)"/>
<path d="M0 0 C1.32 0 2.64 0 4 0 C3.8125 1.8125 3.8125 1.8125 3 4 C0.4375 5.75 0.4375 5.75 -2 7 C-2.33 5.68 -2.66 4.36 -3 3 C-2.01 2.67 -1.02 2.34 0 2 C0 1.34 0 0.68 0 0 Z " fill="#3C90EE" transform="translate(638,648)"/>
<path d="M0 0 C0.66 0.33 1.32 0.66 2 1 C0.63016497 4.16115776 0.0109362 4.9927092 -3 7 C-4.32 6.67 -5.64 6.34 -7 6 C-4.69 4.02 -2.38 2.04 0 0 Z " fill="#4493E9" transform="translate(843,587)"/>
<path d="M0 0 C1.32 0.66 2.64 1.32 4 2 C1.36 3.98 -1.28 5.96 -4 8 C-4 4 -4 4 -2 1.75 C-1.01 0.88375 -1.01 0.88375 0 0 Z " fill="#E4F2FC" transform="translate(888,546)"/>
<path d="M0 0 C0.66 0.33 1.32 0.66 2 1 C1.67 1.66 1.34 2.32 1 3 C1.66 3.33 2.32 3.66 3 4 C-1.95 5.485 -1.95 5.485 -7 7 C-4.66666667 4.66666667 -2.33333333 2.33333333 0 0 Z " fill="#E6F4FC" transform="translate(954,396)"/>
<path d="M0 0 C0.66 0.33 1.32 0.66 2 1 C1.67 2.32 1.34 3.64 1 5 C-1.64 5.66 -4.28 6.32 -7 7 C-4.66666667 4.66666667 -2.33333333 2.33333333 0 0 Z " fill="#4A95EB" transform="translate(1126,349)"/>
<path d="M0 0 C0.99 0.33 1.98 0.66 3 1 C2.625 2.9375 2.625 2.9375 2 5 C1.01 5.495 1.01 5.495 0 6 C-0.33 5.34 -0.66 4.68 -1 4 C-1.33 4.66 -1.66 5.32 -2 6 C-2.66 6 -3.32 6 -4 6 C-2.84826645 3.53199953 -1.95216435 1.95216435 0 0 Z " fill="#3D91ED" transform="translate(1055,306)"/>
<path d="M0 0 C0.66 0 1.32 0 2 0 C2.66 2.97 3.32 5.94 4 9 C2.68 8.67 1.36 8.34 0 8 C0 5.36 0 2.72 0 0 Z " fill="#E2F0F8" transform="translate(0,1156)"/>
<path d="M0 0 C-0.125 1.875 -0.125 1.875 -1 4 C-4.0625 5.25 -4.0625 5.25 -7 6 C-7 5.01 -7 4.02 -7 3 C-2.77777778 0 -2.77777778 0 0 0 Z " fill="#EEF6F8" transform="translate(373,1144)"/>
<path d="M0 0 C4.455 2.97 4.455 2.97 9 6 C8.01 6.495 8.01 6.495 7 7 C4.375 6.0625 4.375 6.0625 2 5 C2 4.34 2 3.68 2 3 C1.34 3 0.68 3 0 3 C0 2.01 0 1.02 0 0 Z " fill="#3D8FEC" transform="translate(784,1136)"/>
<path d="M0 0 C2.31 0.33 4.62 0.66 7 1 C4.53721199 3.46278801 2.29323018 3.99771255 -1 5 C-0.67 3.35 -0.34 1.7 0 0 Z " fill="#E6F4FC" transform="translate(477,820)"/>
<path d="M0 0 C0.99 0 1.98 0 3 0 C3.66 2.64 4.32 5.28 5 8 C3.0625 7.375 3.0625 7.375 1 6 C0.25 2.875 0.25 2.875 0 0 Z " fill="#EBF4FB" transform="translate(928,732)"/>
<path d="M0 0 C2.64 0.33 5.28 0.66 8 1 C6.68 2.32 5.36 3.64 4 5 C2.35 4.01 0.7 3.02 -1 2 C-0.67 1.34 -0.34 0.68 0 0 Z " fill="#3D93F1" transform="translate(908,705)"/>
<path d="M0 0 C0 1.65 0 3.3 0 5 C-0.33 4.34 -0.66 3.68 -1 3 C-1.99 4.485 -1.99 4.485 -3 6 C-5.625 6.1875 -5.625 6.1875 -8 6 C-2.15384615 0 -2.15384615 0 0 0 Z " fill="#4191EA" transform="translate(760,655)"/>
<path d="M0 0 C0.99 0.33 1.98 0.66 3 1 C1.95125002 3.62187494 1.35068687 4.79371361 -1.125 6.25 C-1.74375 6.4975 -2.3625 6.745 -3 7 C-3.33 6.01 -3.66 5.02 -4 4 C-3.34 3.525625 -2.68 3.05125 -2 2.5625 C-1.34 2.046875 -0.68 1.53125 0 1 C0 0.67 0 0.34 0 0 Z " fill="#EEF8FB" transform="translate(772,640)"/>
<path d="M0 0 C-1.36983503 3.16115776 -1.9890638 3.9927092 -5 6 C-5 5.01 -5 4.02 -5 3 C-5.66 2.67 -6.32 2.34 -7 2 C-4 0 -4 0 0 0 Z " fill="#EAF5FB" transform="translate(1055,409)"/>
<path d="M0 0 C0 0.99 0 1.98 0 3 C-0.99 3.33 -1.98 3.66 -3 4 C-2.67 4.99 -2.34 5.98 -2 7 C-3.98 7.33 -5.96 7.66 -8 8 C-3.375 2.25 -3.375 2.25 0 0 Z " fill="#DEF0FE" transform="translate(998,360)"/>
<path d="M0 0 C1.32 1.32 2.64 2.64 4 4 C0.67395049 5.10868317 -2.53058454 5.54177532 -6 6 C-4 4 -2 2 0 0 Z " fill="#EAF6FB" transform="translate(1023,339)"/>
<path d="M0 0 C0.99 0.33 1.98 0.66 3 1 C0.36 2.98 -2.28 4.96 -5 7 C-4.67 5.02 -4.34 3.04 -4 1 C-2.02 1.495 -2.02 1.495 0 2 C0 1.34 0 0.68 0 0 Z " fill="#448FEA" transform="translate(1049,314)"/>
<path d="M0 0 C2.9719385 1.12451727 5.33440687 2.22293791 8 4 C8 4.66 8 5.32 8 6 C5.36 5.67 2.72 5.34 0 5 C0.99 4.34 1.98 3.68 3 3 C2.01 2.67 1.02 2.34 0 2 C0 1.34 0 0.68 0 0 Z " fill="#3686E1" transform="translate(1268,24)"/>
<path d="M0 0 C0 0.66 0 1.32 0 2 C-3.63 1.34 -7.26 0.68 -11 0 C-11 -0.33 -11 -0.66 -11 -1 C-6.65609517 -2.08597621 -3.99390508 -1.99695254 0 0 Z " fill="#4C97EC" transform="translate(1152,1156)"/>
<path d="M0 0 C4.95 0.99 4.95 0.99 10 2 C6 4 6 4 3.875 3.8125 C2 3 2 3 0 0 Z " fill="#4495E9" transform="translate(811,1153)"/>
<path d="M0 0 C-2.67478244 1.6627026 -4.9995144 2.99983813 -8 4 C-8 3.34 -8 2.68 -8 2 C-9.32 1.67 -10.64 1.34 -12 1 C-3.96428571 -1.27678571 -3.96428571 -1.27678571 0 0 Z " fill="#4E99EE" transform="translate(366,1152)"/>
<path d="M0 0 C0.66 1.32 1.32 2.64 2 4 C1.34 4 0.68 4 0 4 C0 5.32 0 6.64 0 8 C-1.98 8.99 -1.98 8.99 -4 10 C-2.8905928 6.51329166 -1.73662334 3.22515763 0 0 Z " fill="#DBEDF8" transform="translate(252,992)"/>
<path d="M0 0 C-0.99 0.495 -0.99 0.495 -2 1 C-2 1.99 -2 2.98 -2 4 C-3.98 3.34 -5.96 2.68 -8 2 C-5.14066998 -0.85933002 -3.8625627 -1.2875209 0 0 Z " fill="#4093E7" transform="translate(326,882)"/>
<path d="M0 0 C2.31 0 4.62 0 7 0 C6.67 1.32 6.34 2.64 6 4 C3.69 3.34 1.38 2.68 -1 2 C-0.67 1.34 -0.34 0.68 0 0 Z " fill="#3E8FEF" transform="translate(630,857)"/>
<path d="M0 0 C0.8971875 0.5259375 0.8971875 0.5259375 1.8125 1.0625 C-0.94674185 2.86661967 -2.07722103 3.0752245 -5.4375 2.6875 C-6.345 2.48125 -7.2525 2.275 -8.1875 2.0625 C-3.10054348 -1.32880435 -3.10054348 -1.32880435 0 0 Z " fill="#4E9CF0" transform="translate(413.1875,851.9375)"/>
<path d="M0 0 C5.75 0.75 5.75 0.75 8 3 C5.36 3.33 2.72 3.66 0 4 C0 2.68 0 1.36 0 0 Z " fill="#388CE7" transform="translate(194,833)"/>
<path d="M0 0 C1.65 0.33 3.3 0.66 5 1 C5 1.99 5 2.98 5 4 C3.02 4.66 1.04 5.32 -1 6 C-0.67 4.02 -0.34 2.04 0 0 Z " fill="#4697EC" transform="translate(337,794)"/>
<path d="M0 0 C0.66 0.33 1.32 0.66 2 1 C-2.75 5.875 -2.75 5.875 -5 7 C-5.99 6.34 -6.98 5.68 -8 5 C-6.71475739 4.13619741 -5.42157581 3.28419631 -4.125 2.4375 C-3.04605469 1.72400391 -3.04605469 1.72400391 -1.9453125 0.99609375 C-1.30335938 0.66738281 -0.66140625 0.33867188 0 0 Z " fill="#E3F0FB" transform="translate(598,679)"/>
<path d="M0 0 C0.33 0.66 0.66 1.32 1 2 C-0.32 3.65 -1.64 5.3 -3 7 C-4.32 6.34 -5.64 5.68 -7 5 C-4.69 3.35 -2.38 1.7 0 0 Z " fill="#E9F8FE" transform="translate(691,615)"/>
<path d="M0 0 C1.2065625 0.0309375 1.2065625 0.0309375 2.4375 0.0625 C0.7875 1.7125 -0.8625 3.3625 -2.5625 5.0625 C-3.5525 4.4025 -4.5425 3.7425 -5.5625 3.0625 C-5.5625 2.4025 -5.5625 1.7425 -5.5625 1.0625 C-4.9025 1.0625 -4.2425 1.0625 -3.5625 1.0625 C-2.5625 0.0625 -2.5625 0.0625 0 0 Z " fill="#3D90E6" transform="translate(1077.5625,290.9375)"/>
<path d="M0 0 C0.99 0.33 1.98 0.66 3 1 C1.38405168 3.04119788 -0.2856382 5.04072937 -2 7 C-2.66 7 -3.32 7 -4 7 C-4 6.01 -4 5.02 -4 4 C-3.34 3.67 -2.68 3.34 -2 3 C-1.67 2.34 -1.34 1.68 -1 1 C-0.67 0.67 -0.34 0.34 0 0 Z " fill="#4D9AEB" transform="translate(1098,273)"/>
<path d="M0 0 C2.97 1.65 5.94 3.3 9 5 C5 6 5 6 2.8125 5.3125 C1 4 1 4 0 0 Z " fill="#E9F2FA" transform="translate(1183,232)"/>
<path d="M0 0 C0 1.65 0 3.3 0 5 C-2.31 4.67 -4.62 4.34 -7 4 C-2.25 0 -2.25 0 0 0 Z " fill="#3689E6" transform="translate(87,26)"/>
<path d="M0 0 C-0.66 0 -1.32 0 -2 0 C-2 0.66 -2 1.32 -2 2 C-1.34 2.33 -0.68 2.66 0 3 C-3.3 2.67 -6.6 2.34 -10 2 C-3.6 -1.2 -3.6 -1.2 0 0 Z " fill="#5EA2EB" transform="translate(624,1154)"/>
<path d="M0 0 C0 0.99 0 1.98 0 3 C-2.70879335 4.35439668 -5.00933268 4.06501451 -8 4 C-3.375 0 -3.375 0 0 0 Z " fill="#4A98ED" transform="translate(1171,1146)"/>
<path d="M0 0 C1 2 1 2 0.44140625 3.9453125 C0.15136719 4.66460938 -0.13867188 5.38390625 -0.4375 6.125 C-0.72496094 6.84945313 -1.01242187 7.57390625 -1.30859375 8.3203125 C-1.53675781 8.87460938 -1.76492188 9.42890625 -2 10 C-4 6.25 -4 6.25 -4 4 C-2.70766393 2.62689293 -1.37562854 1.28965176 0 0 Z " fill="#E8F5F9" transform="translate(671,1102)"/>
<path d="M0 0 C0.66 0 1.32 0 2 0 C0.33333333 3.33333333 -1.33333333 6.66666667 -3 10 C-3.66 9.01 -4.32 8.02 -5 7 C-3.625 4.5 -3.625 4.5 -2 2 C-1.34 2 -0.68 2 0 2 C0 1.34 0 0.68 0 0 Z " fill="#3F91E8" transform="translate(253,988)"/>
<path d="M0 0 C2.97 0.33 5.94 0.66 9 1 C9 1.33 9 1.66 9 2 C5.7 2.33 2.4 2.66 -1 3 C-0.67 2.01 -0.34 1.02 0 0 Z " fill="#368FE7" transform="translate(564,853)"/>
<path d="M0 0 C0 0.66 0 1.32 0 2 C-2.2727675 3.49524178 -4.5679943 4.78399715 -7 6 C-7.99 5.34 -8.98 4.68 -10 4 C-8.71086513 3.32845067 -7.41859796 2.66291141 -6.125 2 C-5.40570312 1.62875 -4.68640625 1.2575 -3.9453125 0.875 C-2 0 -2 0 0 0 Z " fill="#569CEB" transform="translate(536,797)"/>
<path d="M0 0 C1.67542976 0.28604898 3.34385343 0.61781233 5 1 C4.67 1.99 4.34 2.98 4 4 C1.9375 4.6875 1.9375 4.6875 0 5 C0.33 4.01 0.66 3.02 1 2 C0.34 1.67 -0.32 1.34 -1 1 C-0.67 0.67 -0.34 0.34 0 0 Z " fill="#3B91F1" transform="translate(611,755)"/>
<path d="M0 0 C-0.33 1.65 -0.66 3.3 -1 5 C-3.97 4.505 -3.97 4.505 -7 4 C-3.17391304 0 -3.17391304 0 0 0 Z " fill="#E1EEF9" transform="translate(543,712)"/>
<path d="M0 0 C1.65 1.32 3.3 2.64 5 4 C4.01 5.485 4.01 5.485 3 7 C2.67 6.67 2.34 6.34 2 6 C1.34 6.66 0.68 7.32 0 8 C0 5.36 0 2.72 0 0 Z " fill="#4A9BF1" transform="translate(0,197)"/>
<path d="M0 0 C2.64 0.99 5.28 1.98 8 3 C7.34 4.32 6.68 5.64 6 7 C5.67 5.68 5.34 4.36 5 3 C4.01 3.33 3.02 3.66 2 4 C1.34 3.67 0.68 3.34 0 3 C0 2.01 0 1.02 0 0 Z " fill="#3789E4" transform="translate(1245,12)"/>
<path d="M0 0 C2.31 0 4.62 0 7 0 C7 1.32 7 2.64 7 4 C3.73045798 3.43628586 2.17424117 2.50037734 0 0 Z " fill="#E5F3FA" transform="translate(533,1144)"/>
<path d="M0 0 C2.31 1.98 4.62 3.96 7 6 C3 7 3 7 1 7 C0.67 4.69 0.34 2.38 0 0 Z " fill="#4B97EA" transform="translate(261,1136)"/>
<path d="M0 0 C2.35953094 2.35953094 2.49141413 3.77895617 3 7 C2.34 6.67 1.68 6.34 1 6 C0.67 6.66 0.34 7.32 0 8 C-0.66 8 -1.32 8 -2 8 C-1.34 5.36 -0.68 2.72 0 0 Z " fill="#4E9AEB" transform="translate(244,1104)"/>
<path d="M0 0 C2.64 0.33 5.28 0.66 8 1 C5.4345406 3.5654594 3.52313332 3.54046087 0 4 C0 2.68 0 1.36 0 0 Z " fill="#4C98E8" transform="translate(344,793)"/>
<path d="M0 0 C0.66 0.33 1.32 0.66 2 1 C-0.1875 3.0625 -0.1875 3.0625 -3 5 C-5.8125 4.75 -5.8125 4.75 -8 4 C-5.31143836 2.20762558 -3.0466145 1.01553817 0 0 Z " fill="#D5ECFA" transform="translate(417,770)"/>
<path d="M0 0 C0.53625 0.37125 1.0725 0.7425 1.625 1.125 C-1.6875 2.25 -1.6875 2.25 -5.375 3.125 C-6.365 2.465 -7.355 1.805 -8.375 1.125 C-2.95961538 -1.09038462 -2.95961538 -1.09038462 0 0 Z " fill="#3B92F0" transform="translate(451.375,754.875)"/>
<path d="M0 0 C0 3.51716303 -0.82445585 4.37121748 -3 7 C-4.32 6.67 -5.64 6.34 -7 6 C-5.68 5.34 -4.36 4.68 -3 4 C-3 3.34 -3 2.68 -3 2 C-2.01 1.34 -1.02 0.68 0 0 Z " fill="#E5F3FC" transform="translate(719,592)"/>
<path d="M0 0 C0 3 0 3 -2.5 5.6875 C-3.325 6.450625 -4.15 7.21375 -5 8 C-5.66 7.34 -6.32 6.68 -7 6 C-4.69 4.02 -2.38 2.04 0 0 Z " fill="#DCF0FB" transform="translate(759,559)"/>
<path d="M0 0 C0.99 0.33 1.98 0.66 3 1 C1.63016497 4.16115776 1.0109362 4.9927092 -2 7 C-2.33 6.01 -2.66 5.02 -3 4 C-2.34 3.34 -1.68 2.68 -1 2 C-0.34 2.33 0.32 2.66 1 3 C0.67 2.01 0.34 1.02 0 0 Z " fill="#4593EB" transform="translate(1052,514)"/>
<path d="M0 0 C-1.04874998 2.62187494 -1.64931313 3.79371361 -4.125 5.25 C-4.74375 5.4975 -5.3625 5.745 -6 6 C-6.33 4.68 -6.66 3.36 -7 2 C-4.35261084 0.5393715 -3.10551666 0 0 0 Z " fill="#3A90E9" transform="translate(871,464)"/>
<path d="M0 0 C0.66 1.32 1.32 2.64 2 4 C-0.31 4.33 -2.62 4.66 -5 5 C-3.35 3.35 -1.7 1.7 0 0 Z " fill="#3F94F1" transform="translate(1045,419)"/>
<path d="M0 0 C1 2 1 2 0.0625 5.125 C-0.288125 6.07375 -0.63875 7.0225 -1 8 C-1.99 6.68 -2.98 5.36 -4 4 C-2.68 2.68 -1.36 1.36 0 0 Z " fill="#3C8EEC" transform="translate(1132,344)"/>
<path d="M0 0 C0.66 0 1.32 0 2 0 C1 3 1 3 -1 6 C-3.625 6.1875 -3.625 6.1875 -6 6 C-4 4 -2 2 0 0 Z " fill="#DFF2FB" transform="translate(1048,317)"/>
<path d="M0 0 C0 0.99 0 1.98 0 3 C-0.99 3.33 -1.98 3.66 -3 4 C-3.73323796 6.01508358 -3.73323796 6.01508358 -4 8 C-4.99 7.34 -5.98 6.68 -7 6 C-4.69 4.02 -2.38 2.04 0 0 Z " fill="#4B93E5" transform="translate(1191,292)"/>
<path d="M0 0 C0.33 0.66 0.66 1.32 1 2 C-0.1875 4.5625 -0.1875 4.5625 -2 7 C-3.32 7.33 -4.64 7.66 -6 8 C-4.02 5.36 -2.04 2.72 0 0 Z " fill="#3989E0" transform="translate(52,52)"/>
<path d="M0 0 C2.64 0.66 5.28 1.32 8 2 C8 3.32 8 4.64 8 6 C4.63408134 4.55746343 2.48952921 2.66735273 0 0 Z " fill="#EEFBFD" transform="translate(1288,36)"/>
<path d="M0 0 C0.33 0 0.66 0 1 0 C1.25 2.3125 1.25 2.3125 1 5 C-1 6.8125 -1 6.8125 -3 8 C-3.33 7.01 -3.66 6.02 -4 5 C-3.01 5 -2.02 5 -1 5 C-1.33 4.01 -1.66 3.02 -2 2 C-1.34 1.34 -0.68 0.68 0 0 Z " fill="#E5F2F9" transform="translate(1178,1134)"/>
<path d="M0 0 C3.36720387 1.39332574 4.9859524 2.9789286 7 6 C5.35 5.67 3.7 5.34 2 5 C2 4.01 2 3.02 2 2 C1.34 2 0.68 2 0 2 C0 1.34 0 0.68 0 0 Z " fill="#3F8CE9" transform="translate(519,1133)"/>
<path d="M0 0 C0.99 0 1.98 0 3 0 C3 2.64 3 5.28 3 8 C2.01 7.34 1.02 6.68 0 6 C-0.1875 2.875 -0.1875 2.875 0 0 Z " fill="#4194EA" transform="translate(499,1088)"/>
<path d="M0 0 C-0.33 0.99 -0.66 1.98 -1 3 C-4.33333333 3 -7.66666667 3 -11 3 C-6.9903514 0.32690093 -4.82843714 0 0 0 Z " fill="#DEF0F9" transform="translate(312,808)"/>
<path d="M0 0 C-2.55991624 2.01136276 -5.04590299 3.62845496 -8 5 C-7.625 3.0625 -7.625 3.0625 -7 1 C-4.53721199 -0.231394 -2.7204945 -0.07159196 0 0 Z " fill="#E5F3FD" transform="translate(598,763)"/>
<path d="M0 0 C1.32 0.33 2.64 0.66 4 1 C1.69 2.32 -0.62 3.64 -3 5 C-3.33 4.01 -3.66 3.02 -4 2 C-2.68 2 -1.36 2 0 2 C0 1.34 0 0.68 0 0 Z " fill="#4092EA" transform="translate(616,665)"/>
<path d="M0 0 C0.99 0.33 1.98 0.66 3 1 C0.03 3.475 0.03 3.475 -3 6 C-3.33 4.68 -3.66 3.36 -4 2 C-2.68 2 -1.36 2 0 2 C0 1.34 0 0.68 0 0 Z " fill="#4592EB" transform="translate(725,584)"/>
<path d="M0 0 C0.33 1.32 0.66 2.64 1 4 C-0.8125 5.0625 -0.8125 5.0625 -3 6 C-3.99 5.67 -4.98 5.34 -6 5 C-4.02 3.35 -2.04 1.7 0 0 Z " fill="#4894E9" transform="translate(1027,434)"/>
<path d="M0 0 C0.33 0.66 0.66 1.32 1 2 C1.66 2.33 2.32 2.66 3 3 C1.1875 4.0625 1.1875 4.0625 -1 5 C-1.99 4.67 -2.98 4.34 -4 4 C-2.68 2.68 -1.36 1.36 0 0 Z " fill="#3E92E7" transform="translate(1035,427)"/>
<path d="M0 0 C-1.36983503 3.16115776 -1.9890638 3.9927092 -5 6 C-5 4.35 -5 2.7 -5 1 C-2 0 -2 0 0 0 Z " fill="#3F90E8" transform="translate(983,371)"/>
<path d="M0 0 C0.99 0.33 1.98 0.66 3 1 C1.02 2.32 -0.96 3.64 -3 5 C-3.66 4.34 -4.32 3.68 -5 3 C-2.6875 1.4375 -2.6875 1.4375 0 0 Z " fill="#4693ED" transform="translate(1035,326)"/>
<path d="M0 0 C0.99 0 1.98 0 3 0 C2.67 2.31 2.34 4.62 2 7 C1.34 6.67 0.68 6.34 0 6 C0 4.02 0 2.04 0 0 Z " fill="#EFF6FB" transform="translate(1201,272)"/>
<path d="M0 0 C0.66 0.99 1.32 1.98 2 3 C0.35 4.32 -1.3 5.64 -3 7 C-2.25 2.25 -2.25 2.25 0 0 Z " fill="#4396EF" transform="translate(1126,249)"/>
<path d="M0 0 C4.875 4.75 4.875 4.75 6 7 C5.01 6.67 4.02 6.34 3 6 C2.67 5.34 2.34 4.68 2 4 C1.01 4 0.02 4 -1 4 C-1.33 3.01 -1.66 2.02 -2 1 C-1.34 0.67 -0.68 0.34 0 0 Z " fill="#3E87DF" transform="translate(1315,62)"/>
<path d="M0 0 C1.98 0 3.96 0 6 0 C6 3 6 3 4.5 4.6875 C4.005 5.120625 3.51 5.55375 3 6 C3 4.68 3 3.36 3 2 C2.01 1.67 1.02 1.34 0 1 C0 0.67 0 0.34 0 0 Z " fill="#F2FBFA" transform="translate(41,56)"/>
</svg>
